<svg xmlns="http://www.w3.org/2000/svg" viewBox="0 0 731 723"><path fill="#26ac24" stroke="#26ac24" d="M0 361.501v361.502l365.75-.252 365.75-.251.251-361.25L732.003 0H0v361.501m.495.499c0 198.825.114 280.163.255 180.75.14-99.412.14-262.087 0-361.5C.609 81.838.495 163.175.495 362M42.25 26.689c.962.252 2.538.252 3.5 0 .962-.251.175-.457-1.75-.457s-2.712.206-1.75.457M50 28c0 .55.45 1 1 1s1-.45 1-1-.45-1-1-1-1 .45-1 1m-9.714 4.5c.008 2.75.202 3.756.432 2.236.229-1.52.223-3.77-.014-5-.237-1.23-.425.014-.418 2.764m24.588-.025c-1.439 4.004-1.044 6.227.626 3.525.876-1.418 4.247-1.242 4.78.25.245.688.735.986 1.087.663 1.034-.948-1.934-8.387-3.466-8.688-.866-.17-2.022 1.453-3.027 4.25M73 32.5c0 2.475.45 4.5 1 4.5s1-2.025 1-4.5-.45-4.5-1-4.5-1 2.025-1 4.5m53.794-3.25c-.628 1.868.56 7.036 1.706 7.418.82.273 1.052-2.943.572-7.918-.118-1.226-1.824-.852-2.278.5M144 28.93c0 .512-1.012 1.075-2.25 1.25-4.038.574-3.159 6.274 1 6.483 3.2.161 3.25.096 3.25-4.25 0-2.427-.45-4.413-1-4.413s-1 .419-1 .93M43.667 30.667c-1.44 1.439-.598 3.904 1.333 3.904 1.417 0 2-.666 2-2.285 0-2.161-1.879-3.074-3.333-1.619M67 31.5c0 .825.436 1.5.969 1.5.532 0 .709-.675.393-1.5-.317-.825-.753-1.5-.969-1.5-.216 0-.393.675-.393 1.5m16.074.362c-1.303 2.435.936 5.732 3.281 4.832.905-.347 1.645-.225 1.645.271s-1.237 1.071-2.75 1.278c-2.269.31-2.444.516-1 1.174C87.505 40.9 89 39.362 89 34.531 89 30.382 88.792 30 86.535 30c-1.38 0-2.903.819-3.461 1.862m8.31-.42c-1.09 2.841.092 5.053 2.875 5.374 1.562.181 2.741-.171 2.741-.817 0-.679-.803-.879-2-.499-1.147.364-2 .18-2-.433C93 34.48 94.141 34 95.535 34c2.225 0 2.405-.244 1.465-2-1.24-2.316-4.805-2.671-5.616-.558M99 33.434c0 1.961.45 3.566 1 3.566s1-1.35 1-3 .45-3 1-3 1 1.35 1 3 .479 3 1.063 3c.598 0 .926-1.424.75-3.25-.498-5.174-5.813-5.463-5.813-.316m8.152-1.719c-1.897 3.546 3.317 7.571 5.414 4.178.456-.738.004-.891-1.357-.459-1.122.356-2.33.179-2.684-.393-.383-.621.42-1.041 1.989-1.041 1.968 0 2.548-.442 2.299-1.75-.466-2.443-4.438-2.818-5.661-.535M114 33.5c0 1.925.45 3.5 1 3.5s1-1.035 1-2.3.54-2.84 1.2-3.5c.933-.933.711-1.2-1-1.2-1.848 0-2.2.561-2.2 3.5m5.469-2.45c-.502.813-.078.961 1.406.49 1.169-.371 2.125-.247 2.125.276s-.947 1.198-2.105 1.501c-2.877.753-1.868 3.109 1.501 3.506 2.555.301 2.72.097 2.423-3-.333-3.471-3.806-5.271-5.35-2.773m11.915.392c-1.09 2.841.092 5.053 2.875 5.374 1.507.174 2.741-.149 2.741-.718s-.629-.794-1.399-.498c-.769.295-1.696.056-2.059-.532-.405-.655.37-1.068 2.006-1.068 2.02 0 2.519-.383 2.059-1.582-.334-.87-.607-1.77-.607-2 0-1.155-5.139-.218-5.616 1.024M44 32c0 .55.45 1 1 1s1-.45 1-1-.45-1-1-1-1 .45-1 1m40.446.087c-.858 1.389 1.044 3.346 2.423 2.494 1.149-.71.413-3.581-.917-3.581-.459 0-1.136.489-1.506 1.087M93 32c0 .55.702 1 1.559 1s1.281-.45.941-1c-.34-.55-1.041-1-1.559-1S93 31.45 93 32m15.5 0c-.34.55.084 1 .941 1S111 32.55 111 32s-.423-1-.941-1-1.219.45-1.559 1m25 0c-.34.55.11 1 1 1s1.34-.45 1-1c-.34-.55-.79-1-1-1-.21 0-.66.45-1 1m7.9.4c-.366.954-.171 2.229.434 2.834.8.8 1.282.627 1.766-.634.366-.954.171-2.229-.434-2.834-.8-.8-1.282-.627-1.766.634m-92.321 1.183c.048 1.165.285 1.402.604.605.289-.722.253-1.585-.079-1.917-.332-.332-.568.258-.525 1.312m3.116.917c.02 1.65.244 2.204.498 1.231.254-.973.237-2.323-.037-3-.274-.677-.481.119-.461 1.769M77 33c0 .55.9 1 2 1s2-.45 2-1-.9-1-2-1-2 .45-2 1m44 2c0 .55.45 1 1 1s1-.45 1-1-.45-1-1-1-1 .45-1 1m-77.232 3.725c1.797.222 4.497.218 6-.01 1.503-.229.032-.411-3.268-.405-3.3.005-4.529.192-2.732.415M203.75 105.08c-.963.561-1.75 1.758-1.75 2.661 0 1.485.119 1.478 1.251-.07.688-.941 2.601-2.113 4.25-2.605 2.793-.833 2.827-.898.499-.95-1.375-.03-3.287.403-4.25.964m9.75.92c1.65.42 4.125.763 5.5.763 2.23 0 2.176-.082-.5-.763-1.65-.42-4.125-.763-5.5-.763-2.23 0-2.176.082.5.763m9.769 1.693c.973.254 2.323.237 3-.037.677-.274-.119-.481-1.769-.461-1.65.02-2.204.244-1.231.498m13.544 1.99c.721.289 1.584.253 1.916-.079.332-.332-.258-.568-1.312-.525-1.165.048-1.402.285-.604.604m6.732 2.772c3.589 3.588 3.762 21.516.232 23.988-1.222.856-1.704 1.557-1.071 1.557 4.966 0 6.612-21.474 1.98-25.826-3.188-2.994-4.173-2.752-1.141.281m-42.373 7.16C201 127.743 202.968 133 206.183 133c.571 0-.024-.859-1.322-1.908-2.058-1.664-2.435-3.042-2.939-10.75l-.577-8.842-.173 8.115m7.641 14.068c.721.289 1.584.253 1.916-.079.332-.332-.258-.568-1.312-.525-1.165.048-1.402.285-.604.604m6.456 1.01c.973.254 2.323.237 3-.037.677-.274-.119-.481-1.769-.461-1.65.02-2.204.244-1.231.498m8.765 1.229c1.944.381 4.194 1.038 5 1.46.806.421.592.058-.475-.808-1.068-.866-3.318-1.522-5-1.459-3.043.114-3.04.119.475.807m11.082 3.328c.082 1.594.246 1.758.561.561.245-.928 1.431-1.879 2.634-2.113 1.802-.35 1.703-.45-.561-.562-2.256-.112-2.729.268-2.634 2.114m312.697 9.433c.721.289 1.584.253 1.916-.079.332-.332-.258-.568-1.312-.525-1.165.048-1.402.285-.604.604m-7 1c.721.289 1.584.253 1.916-.079.332-.332-.258-.568-1.312-.525-1.165.048-1.402.285-.604.604m-7.063.979c.688.278 1.813.278 2.5 0 .688-.277.125-.504-1.25-.504s-1.937.227-1.25.504m27.054 11.685c.279 11.189.136 12.34-1.789 14.407-1.151 1.235-1.651 2.246-1.111 2.246 2.937 0 4.096-4.574 4.096-16.163 0-6.446-.337-11.929-.75-12.185-.413-.256-.613 5.006-.446 11.695m-34.054-10.685c.688.278 1.813.278 2.5 0 .688-.277.125-.504-1.25-.504s-1.937.227-1.25.504m-5.576 2.652c-1.976 2.104-2.174 3.379-2.174 14 0 13.131 1.14 15.686 7 15.686 2.552 0 3 .382 3 2.559 0 1.407.39 2.318.866 2.024 2.385-1.474-.125-5.583-3.411-5.583-5.739 0-6.455-1.665-6.455-14.999 0-11.617.053-11.898 2.635-13.928 1.449-1.14 2.202-2.073 1.674-2.073s-1.939 1.042-3.135 2.314M548 161.393c0 .216.698.661 1.552.989.89.341 1.291.173.941-.393-.587-.951-2.493-1.406-2.493-.596m-13.128 5.357c-1.243 1.586-1.208 1.621.378.378 1.666-1.307 2.195-2.128 1.372-2.128-.207 0-.995.787-1.75 1.75m-276 6c-1.269 1.619-1.222 1.64.628.283 1.1-.807 2.188-1.594 2.417-1.75.229-.156-.054-.283-.628-.283s-1.662.787-2.417 1.75m10.207 3.833c.048 1.165.285 1.402.604.605.289-.722.253-1.585-.079-1.917-.332-.332-.568.258-.525 1.312m-1.515 4.124c-.542 1.425-.428 1.54.56.56.684-.679.991-1.486.683-1.793-.308-.308-.867.247-1.243 1.233m280.249-.024c.721.289 1.584.253 1.916-.079.332-.332-.258-.568-1.312-.525-1.165.048-1.402.285-.604.604m-286.96 1.57c.504.504 1.981.749 3.282.544 2.001-.315 1.861-.455-.916-.916-1.988-.329-2.921-.183-2.366.372m278.897-.591c.688.278 1.813.278 2.5 0 .688-.277.125-.504-1.25-.504s-1.937.227-1.25.504m-5.878 2.088c-1.269 1.619-1.222 1.64.628.283 1.1-.807 2.188-1.594 2.417-1.75.229-.156-.054-.283-.628-.283s-1.662.787-2.417 1.75m-20.844 15.716c-.669.807-1.062 1.917-.873 2.468.19.55.865-.11 1.501-1.467 1.318-2.813 1.127-3.116-.628-1.001m3.972.636c-1.223.874-1.111.987.608.616 1.159-.251 2.959.014 4 .59 1.687.933 1.744.865.52-.631-1.581-1.932-3.005-2.091-5.128-.575m8.951 3.622c-.274 2.323-.118 3.843.348 3.377.466-.466.69-2.366.499-4.224-.339-3.294-.36-3.273-.847.847M163 205.699c-4.22 1.524-4.955 4.273-4.978 18.617-.034 21.06-.433 20.77 28.178 20.473l20.3-.211-21.339-.539-21.339-.539-2.411-2.806c-2.287-2.662-2.411-3.49-2.411-16.139 0-16.641.599-17.741 10.158-18.648l6.342-.602-5.5-.074c-3.025-.04-6.175.171-7 .468m27.5 1.268c20.89.873 21.792 1.711 21.386 19.884-.216 9.717-.143 10.085 2.696 13.497 1.605 1.929 3.286 3.54 3.736 3.58.918.081-2.881-5.54-4.365-6.457-.524-.324-.955-5.625-.957-11.78-.006-18.229-1.979-19.801-24.496-19.515l-13 .165 15 .626m146 2.164c-50.943 3.664-93.481 30.401-113.549 71.369-10.447 21.327-10.548 53.881-.239 77.191 7.659 17.319 24.685 37.833 39.913 48.088 3.368 2.269 6.376 4.78 6.683 5.58 1.729 4.506-5.947 25.211-21.351 57.595-9.949 20.913-9.073 21.674 14.352 12.472 32.566-12.793 73.75-37.194 78.846-46.715 1.297-2.425 1.264-2.406-11.155 6.291-14.38 10.071-22.514 15.127-35.071 21.799-18.756 9.966-46.927 21.534-48.532 19.929-.365-.364 3.17-9.115 7.856-19.446 15.096-33.285 17.082-38.749 17.17-47.243l.077-7.459-6.5-4.832c-10.935-8.127-20.538-17.335-26.939-25.83-22.058-29.273-26.043-66.456-10.548-98.42 27.223-56.158 103.306-82.647 172.311-59.991 47.625 15.636 86.178 53.648 96.865 95.507 3.198 12.528 3.963 40.292 1.424 51.734-1.711 7.713-1.867 7.698-5.813-.556-15.266-31.933-60.069-49.341-99.8-38.779-76.231 20.265-78.391 103.871-3 116.115 42.417 6.889 85.276-16.086 104.524-56.03 13.544-28.107 12.662-65.428-2.244-95-27.393-54.341-90.181-88.052-155.28-83.369m-168.99 3.885c.346.559 1.047.758 1.559.441 1.387-.857 1.129-1.457-.628-1.457-.857 0-1.276.457-.931 1.016m2.24 6.707c1.787.222 4.713.222 6.5 0 1.787-.221.325-.403-3.25-.403s-5.037.182-3.25.403m122.907 14.953c-.372.372-1.924.735-3.448.806-1.525.072-3.433.542-4.241 1.045-.807.503-2.305 1.045-3.328 1.205-3.698.575-16.333 9.958-25.273 18.768-21.011 20.706-32.332 48.594-29.43 72.5.618 5.086.819 5.619.926 2.45.075-2.227.539-4.477 1.03-5 .491-.522 1.603-4.133 2.472-8.024 3.147-14.102 12.028-37.113 15.601-40.426.297-.275 1.785-2.338 3.308-4.584 1.522-2.246 3.546-4.95 4.497-6.009a442.741 442.741 0 0 0 5.146-5.916c4.145-4.841 14.119-12.976 23.583-19.235 8.98-5.94 12.011-8.256 10.802-8.256-.533 0-1.273.304-1.645.676M504.4 244.4l-3.4 3.4v11.271c0 9.276-.31 11.64-1.75 13.35-1.748 2.077-1.748 2.077.5.174 2.091-1.77 2.25-2.713 2.25-13.327 0-11.334.023-11.445 2.972-14.394l2.973-2.972 15.434.299c8.489.164 15.225-.039 14.968-.451-.256-.412-7.233-.75-15.506-.75H507.8l-3.4 3.4m37.897 2.6c1.404 3.534 1.577 20.671.251 24.849-1.32 4.158-5.359 5.564-16.131 5.616-9.954.048-17.384 2.568-17.41 5.904-.004.477 1.538-.31 3.426-1.75 3.123-2.382 4.258-2.619 12.532-2.619 17.297 0 20.342-3.097 19.863-20.202-.27-9.674-.643-12.045-2.125-13.515-1.728-1.715-1.744-1.649-.406 1.717m-30.69 7.582c-.939 2.447-.717 9.418.3 9.418.5 0 1.062-2.476 1.25-5.501.335-5.379-.337-7.078-1.55-3.917m6.025.533c-3.725 5.318 4.36 11.866 8.713 7.056 2.726-3.012 1.641-9.171-1.616-9.171-.48 0-.165.707.7 1.571 3.02 3.021 1.282 7.429-2.929 7.429-4.564 0-6.036-4.811-2.277-7.443 1.755-1.23 1.872-1.557.556-1.557-.916 0-2.332.952-3.147 2.115m14.932.178c.376.986.935 1.541 1.243 1.233.308-.307.001-1.114-.683-1.793-.988-.98-1.102-.865-.56.56m-9.814 12.413c1.237.238 3.263.238 4.5 0 1.237-.239.225-.434-2.25-.434s-3.487.195-2.25.434M494.5 276c-.367.594.725.971 2.691.93 2.757-.059 2.975-.214 1.309-.93-2.713-1.166-3.28-1.166-4 0m13 2c.34.55.816 1 1.059 1s.441-.45.441-1-.477-1-1.059-1-.781.45-.441 1m81.994 12.006c-2.556 2.825-1.468 3.087 1.22.295 1.218-1.266 1.85-2.301 1.405-2.301-.445 0-1.626.903-2.625 2.006m-186.911 38.101c-56.11 8.183-85.177 61.031-51.67 93.944 40.052 39.344 122.574 15.244 142.577-41.639l1.789-5.089-3.889-7.411c-15.137-28.851-51.663-45.222-88.807-39.805m-282.409 7.207c-2.148 2.287-3.088 9.003-1.406 10.043.423.261.6-1.296.394-3.46-.4-4.191.883-6.559 4.303-7.945 1.434-.582 1.57-.844.459-.889-.866-.034-2.554.979-3.75 2.251m12.135-.286c1.873 1.473 2.683 3.185 2.96 6.25l.382 4.222.174-4.25c.175-4.248-2.231-8.25-4.96-8.25-.624 0 .026.913 1.444 2.028m-1.966 6.282-.158 4.19.972-3.386c.534-1.863.604-3.748.157-4.19-.448-.443-.885 1.081-.971 3.386M125 345c0 .55.477 1 1.059 1s.781-.45.441-1-.816-1-1.059-1-.441.45-.441 1m8.045 2.446c-.661.796-3.078 1.617-5.373 1.826l-4.172.379 4.095.174c2.979.127 4.588-.37 5.905-1.825.995-1.1 1.57-2 1.277-2-.292 0-1.072.651-1.732 1.446m-12.312.678c.679.684 1.486.991 1.793.683.308-.308-.247-.867-1.233-1.243-1.425-.542-1.54-.428-.56.56m237.579 5.658c-9.156 8.326-14.443 18.74-16.738 32.968-.291 1.803-.09 3.25.451 3.25.536 0 .975-1.329.975-2.953 0-2.683 1.687-7.805 2.98-9.047.808-.777 2.656-4.029 5.473-9.633 1.419-2.823 3.922-6.823 5.563-8.888 1.641-2.064 2.984-4.034 2.984-4.377 0-.342 1.143-1.855 2.54-3.362 4.057-4.375 1.436-3.109-4.228 2.042m153.016 1.718c.005 3.85.185 5.302.402 3.228.216-2.075.213-5.225-.008-7-.221-1.776-.398-.078-.394 3.772m-123.395-1.234c-9.61 6.476-5.363 20.007 6.281 20.007 11.53 0 14.769-16.458 4.114-20.909-4.523-1.89-6.507-1.718-10.395.902m54.257-.292c-5.164 3.229-6.725 8.028-4.355 13.387 4.264 9.639 16.766 9.624 20.798-.025 3.932-9.41-7.676-18.843-16.443-13.362m-54.384 4.066c-7.395 7.395 2.994 18.207 11.012 11.46 4.084-3.437 4.383-8.39.727-12.045-3.483-3.484-7.89-3.264-11.739.585m56.502-2.03c-5.858 2.359-6.414 9.04-1.122 13.493 6.892 5.799 15.79-.898 12.281-9.244-2.002-4.76-6.057-6.304-11.159-4.249m65.887 12.49c.02 1.65.244 2.204.498 1.231.254-.973.237-2.323-.037-3-.274-.677-.481.119-.461 1.769m-1.116 5.083c.048 1.165.285 1.402.604.605.289-.722.253-1.585-.079-1.917-.332-.332-.568.258-.525 1.312m-1 5c.048 1.165.285 1.402.604.605.289-.722.253-1.585-.079-1.917-.332-.332-.568.258-.525 1.312M220 380.941c0 .518.445 1.216.989 1.552.566.35.734-.051.393-.941-.665-1.732-1.382-2.049-1.382-.611m287.079 1.642c.048 1.165.285 1.402.604.605.289-.722.253-1.585-.079-1.917-.332-.332-.568.258-.525 1.312m-4.071 11.162c-14.287 35.515-37.727 57.957-71.643 68.598-25.512 8.003-62.822 4.749-81.331-7.094-4.612-2.952-7.272-2.341-15.138 3.472-17.217 12.723-33.478 22.407-52.891 31.497-8.969 4.199-32.324 13.782-33.59 13.782-.962 0-.282-4.073 1.585-9.5 2.268-6.591 2.31-6.809 1.173-6.107-.455.281-1.653 3.237-2.661 6.568-1.795 5.927-1.877 6.019-3.819 4.298-1.914-1.697-1.944-1.688-.855.241 3.893 6.899 3.159 6.937 23.662-1.218 26.45-10.519 45.359-20.956 66.088-36.477 10.212-7.647 10.616-7.749 17.272-4.376 45.762 23.189 107.227 8.864 137.001-31.929 6.21-8.509 19.83-36.997 18.93-39.595-.16-.461-1.862 3.067-3.783 7.84M235 401.378c0 .207.787.995 1.75 1.75 1.586 1.243 1.621 1.208.378-.378-1.307-1.666-2.128-2.195-2.128-1.372m10 10.122c1.292 1.375 2.574 2.5 2.849 2.5.275 0-.557-1.125-1.849-2.5-1.292-1.375-2.574-2.5-2.849-2.5-.275 0 .557 1.125 1.849 2.5m9.183 7.065c.926 1.064 3.176 2.786 5 3.827 3.915 2.233 2.883 1.125-2.683-2.882-2.327-1.675-3.296-2.07-2.317-.945m-118.843 20.99c-.328.856-.163 2.526.366 3.711.822 1.843.949 1.618.878-1.552-.092-4.07-.343-4.505-1.244-2.159m9.76 4.74c-1.265 2.107-1.243 2.128.479.479.991-.95 1.587-1.942 1.324-2.205-.263-.263-1.074.514-1.803 1.726M575 481.5c1.292 1.375 2.574 2.5 2.849 2.5.275 0-.557-1.125-1.849-2.5-1.292-1.375-2.574-2.5-2.849-2.5-.275 0 .557 1.125 1.849 2.5m-10.02.024c-.696.838-1.071 1.718-.835 1.955.237.236.98-.449 1.651-1.524 1.452-2.325.968-2.58-.816-.431m-1.901 5.059c.048 1.165.285 1.402.604.605.289-.722.253-1.585-.079-1.917-.332-.332-.568.258-.525 1.312m1.814 4.155c1.202 2.309 5.039 3.851 7.314 2.939.711-.286.197-.555-1.143-.598-1.339-.043-3.538-1.091-4.885-2.329l-2.45-2.25 1.164 2.238M575 492c-.901.582-1.025.975-.309.985.655.008 1.469-.435 1.809-.985.767-1.242.421-1.242-1.5 0m49 4.896c-12.522 2.645-20.409 17.01-15.625 28.459 7.653 18.316 32.633 19.632 40.729 2.145 7.524-16.251-7.329-34.359-25.104-30.604m-4.025 3.354c-13.476 6.816-14.679 25.016-2.277 34.466 4.658 3.549 17.83 4.103 22.499.946 16.716-11.3 8.866-37.609-11.235-37.652-2.739-.006-6.302.882-8.987 2.24M219 522.587c-3.025.779-13.207 3.175-22.627 5.325-27.972 6.385-27.973 6.387-26.945 31.554.86 21.038 1.204 23.452 3.728 26.173 3.876 4.179 6.892 3.903 32.844-3.01a5301.41 5301.41 0 0 1 19.815-5.241c4.351-1.133 7.429-2.696 9.895-5.021l3.58-3.376-.723-20.197c-1.019-28.449-2.606-30.575-19.567-26.207m.5 1.605c-2.2.542-12.55 3.002-23 5.467-27.322 6.444-26.891 5.882-25.262 32.944 1.117 18.577 1.183 18.944 3.872 21.647 3.84 3.859 3.889 3.852 40.39-5.686 23.699-6.194 22.987-5.137 21.337-31.691-1.538-24.729-2.723-26.28-17.337-22.681m-5.717 26.019-3.477 4.21-4.219-1.392-4.219-1.393-3.83 4.432-3.829 4.432-3.183-2.338c-1.751-1.286-3.399-2.123-3.662-1.859-.664.664 5.144 4.697 6.763 4.697.725 0 2.958-1.903 4.961-4.23l3.643-4.23 3.687 1.98 3.687 1.98 4.197-4.758c4.556-5.164 8.164-5.554 5.734-.619-1.157 2.351-1.148 2.35.866-.123 1.88-2.307 1.909-2.597.376-3.75-2.634-1.983-3.792-1.525-7.495 2.961M467 555.248c-5.775 1.137-10 2.238-9.389 2.447.612.209 6.203-.537 12.425-1.658 18.851-3.394 19.621-2.986 22.331 11.822 3.188 17.428 3.45 17.125-18.687 21.619-29.093 5.906-28.418 6.158-31.301-11.695-2.374-14.701-1.547-16.24 10.121-18.841 3.944-.879 3.932-.885-.854-.422-11.817 1.144-13.378 4.043-10.541 19.576 3.619 19.81 2.438 19.558 45.882 9.767 8.738-1.969 9.422-3.971 6.537-19.129-3.296-17.314-4.355-17.852-26.524-13.486M459.5 565c.34.55 1.041 1 1.559 1s.941-.45.941-1-.702-1-1.559-1-1.281.45-.941 1m-5.5 1.559c0 .857.45 1.281 1 .941.55-.34 1-1.041 1-1.559s-.45-.941-1-.941-1 .702-1 1.559m-6 .441c0 .55.45 1 1 1s1-.45 1-1-.45-1-1-1-1 .45-1 1" fill-rule="evenodd"/><path fill="#0e7d0d" stroke="#0e7d0d" d="M0 361.501v361.502l365.75-.252 365.75-.251.251-361.25L732.003 0H0v361.501m.495.499c0 198.825.114 280.163.255 180.75.14-99.412.14-262.087 0-361.5C.609 81.838.495 163.175.495 362M40.409 27.377c-.291.757-.389 3.57-.219 6.25l.31 4.873h12l.156-4 .156-4-.656 3.5c-.646 3.446-.733 3.5-5.656 3.5h-5v-5c0-4.93.049-5.009 3.5-5.618l3.5-.619-3.781-.131c-2.388-.083-3.977.375-4.31 1.245m9.037-.29c-1.03 1.668 1.287 3.58 2.667 2.2C53.267 28.133 52.545 26 51 26c-.485 0-1.184.489-1.554 1.087M64.783 32c-1.283 4.012-1.337 5-.274 5 .728 0 1.528-.562 1.777-1.25.358-.989.918-.975 2.681.069 3.182 1.884 3.563.857 1.595-4.297-2.233-5.845-3.799-5.715-5.779.478M73 31.917c0 3.931.352 5.083 1.555 5.083 1.228 0 1.491-.982 1.25-4.672C75.37 25.656 73 25.309 73 31.917m71-3.487c0 .787-1.012 1.575-2.25 1.75-4.01.57-3.156 6.233 1 6.633l3.25.314v-5.064c0-2.784-.45-5.063-1-5.063s-1 .644-1 1.43m-17.203.679c-.203.61-.197 2.593.015 4.405.376 3.218.499 3.296 5.263 3.333 2.683.021 5.184-.457 5.558-1.062.448-.724-.056-.908-1.476-.536-1.185.31-2.407.155-2.715-.343-.308-.498.625-.906 2.072-.906 4.676 0 2.764-3.479-1.979-3.602-2.165-.056-4.109-.619-4.319-1.25-.488-1.463-1.937-1.486-2.419-.039m-83.109.537c-.379.378-.681 2.075-.673 3.771.012 2.375.242 2.739 1 1.583.876-1.333 1.1-1.333 2.017 0 .785 1.14.965.679.75-1.923-.272-3.304-1.671-4.855-3.094-3.431m38.998 1.73c-.336.875-1.469 1.197-3.107.884-1.527-.292-2.579-.037-2.579.623C77 33.498 78.07 34 79.378 34c1.307 0 2.937.675 3.622 1.5s1.977 1.545 2.872 1.6c.908.055.521.437-.872.862-2.277.695-2.332.834-.614 1.559 3.003 1.269 5.082-.792 5.421-5.373.306-4.122.286-4.148-3.143-4.148-2.006 0-3.671.576-3.978 1.376m8.724-.001c-1.572 4.094 3.08 7.667 5.955 4.574.877-.943.623-1.098-1.114-.679-1.237.298-2.501.134-2.809-.364-.308-.498.625-.906 2.072-.906 1.967 0 2.549-.442 2.301-1.75-.432-2.277-5.597-2.982-6.405-.875M99 33.5c0 1.925.45 3.5 1 3.5s1-1.125 1-2.5.45-2.5 1-2.5 1 1.125 1 2.5.45 2.5 1 2.5 1-1.575 1-3.5c0-3.222-.238-3.5-3-3.5s-3 .278-3 3.5m7.93-1.916c-1.786 2.152-.042 4.819 3.421 5.232 3.214.384 3.57-1.5.399-2.11-1.929-.372-1.858-.453.5-.57 1.838-.091 2.75.361 2.75 1.364 0 .825.45 1.5 1 1.5s1-1.125 1-2.5.338-2.537.75-2.581c4.148-.45 6.016-.349 5.614.301-.265.429-1.13.78-1.923.78-.793 0-1.441.9-1.441 2 0 1.619.667 2 3.5 2 3.567 0 4.762-2.472 2.735-5.653-1.255-1.969-11.229-1.561-11.265.46-.028 1.555-.114 1.55-1.05-.057-1.27-2.18-4.25-2.262-5.99-.166M49.195 33.5c.02 1.65.244 2.204.498 1.231.254-.973.237-2.323-.037-3-.274-.677-.481.119-.461 1.769M93.5 32c-.34.55-.141 1 .441 1S95 32.55 95 32s-.198-1-.441-1-.719.45-1.059 1m35.5.941c0 1.068.45 2.219 1 2.559.567.351 1-.49 1-1.941 0-1.407-.45-2.559-1-2.559s-1 .873-1 1.941m4.5-.941c-.34.55.11 1 1 1s1.34-.45 1-1c-.34-.55-.79-1-1-1-.21 0-.66.45-1 1m8.139-.306c-1.195 1.195-.645 3.306.861 3.306.825 0 1.5-.648 1.5-1.441 0-1.671-1.427-2.798-2.361-1.865M85 33.5c0 .825.45 1.5 1 1.5s1-.675 1-1.5-.45-1.5-1-1.5-1 .675-1 1.5m36 1.559c0 .582.45.781 1 .441s1-.816 1-1.059-.45-.441-1-.441-1 .477-1 1.059m81.655 70.77c-1.323 1.462-1.655 3.977-1.655 12.547 0 10.307.102 10.814 2.646 13.172 1.455 1.348 3.143 2.46 3.75 2.47 9.22.15 20.186 3.144 23.552 6.432 4.316 4.213 5.052 4.366 5.052 1.05 0-2.175.441-2.5 3.389-2.5 6.405 0 7.54-2.08 7.789-14.273.3-14.642.822-14.195-20.849-17.857-19.899-3.362-21.509-3.433-23.674-1.041m2.051.943c-1.369 1.513-1.706 3.864-1.706 11.902 0 12.686.102 12.791 14.735 15.154 9.834 1.588 11.293 2.093 13.514 4.675 2.46 2.86 2.498 2.868 3.188.696.579-1.826 1.443-2.199 5.095-2.199 5.693 0 6.468-1.474 6.468-12.299 0-9.749-1.801-13.246-7.293-14.161a6815.52 6815.52 0 0 0-15.528-2.536c-6.777-1.101-13.322-2.253-14.544-2.559-1.449-.364-2.817.098-3.929 1.327m332.031 42.613c-18.438 2.942-18.237 2.738-18.237 18.538 0 13.638 1.086 16.077 7.155 16.077 2.901 0 3.345.332 3.345 2.5 0 3.245.732 3.152 4.584-.581 2.855-2.767 4.225-3.218 13.448-4.423 14.859-1.942 15.468-2.675 15.468-18.607 0-17.498-.173-17.588-25.763-13.504m3.253 1.064c-20.654 3.165-19.99 2.577-19.99 17.699 0 11.974.763 13.852 5.629 13.852 2.717 0 3.682.473 4.081 2 .676 2.585 1.452 2.521 4.141-.342 1.813-1.929 3.987-2.569 12.356-3.635 14.543-1.854 15.069-2.484 14.628-17.515-.455-15.503-.018-15.251-20.845-12.059m5.886 12.825c-1.488 2.015-1.843 2.081-4.253.792-2.412-1.291-2.841-1.21-5.169.977-2.145 2.016-2.84 2.197-4.483 1.171-2.358-1.473-3.301-1.557-2.474-.219 1.622 2.625 4.299 2.954 6.967.855 2.312-1.819 3.041-1.941 5.335-.896 2.414 1.1 2.865.952 4.924-1.621 2.06-2.575 2.834-2.519 2.324.167-.104.55.343.477.994-.163 1.325-1.3.483-3.357-1.35-3.3-.655.021-1.922 1.027-2.815 2.237M260.5 171.203c-5.643 3.177-4.435 10.213 2.093 12.196 3.038.923 7.407-2.803 7.407-6.317 0-4.596-5.611-8.068-9.5-5.879m-1.004 2.801c-2.341 2.587-.745 6.645 2.983 7.58 4.654 1.168 8.11-4.171 4.956-7.656-2.254-2.491-5.645-2.459-7.939.076m255.733 22.665c-4.363 1.756-5.087 8.627-1.306 12.408 5.564 5.564 13.077 2.351 13.077-5.593 0-6.116-5.538-9.323-11.771-6.815M515 199c-2.239 2.239-2.701 7.899-.8 9.8 2.112 2.112 8.494 1.475 10.243-1.023 3.23-4.611.402-10.777-4.943-10.777-1.375 0-3.4.9-4.5 2m.557 2.223c-3.111 4.44-1.01 8.16 3.304 5.851 1.334-.714 2.228-.74 2.637-.077 1.345 2.176 2.388.808 2.239-2.935-.121-3.044-.621-4.063-2.197-4.487-3.428-.921-4.365-.662-5.983 1.648m1.11.444c-1.066 1.065-.77 4.333.392 4.333.582 0 .784-.445.448-.989-.358-.579.072-.726 1.042-.354 1.691.649 3.723-1.408 2.826-2.859-.598-.968-3.783-1.056-4.708-.131m-357.151 6.496c-2.642 3.14-2.659 3.266-2.339 16.984l.323 13.82 3.103 3.1 3.103 3.1 16.897.338c9.293.185 22.18.081 28.637-.233l11.739-.571-3.989-4.328-3.99-4.328V212.8l-3.25-3.239-3.25-3.238-14.5-.658c-27.769-1.259-29.429-1.132-32.484 2.498m1.557 1.472c-1.822 2.315-2.073 4.016-2.073 14.032 0 13.348 1.339 17.835 5.684 19.047 3.541.988 49.952.983 50.941-.005.401-.402-.475-1.987-1.948-3.524-2.588-2.701-2.677-3.18-2.677-14.379 0-17.512.123-17.45-35.177-17.712-12.554-.093-12.698-.068-14.75 2.541m171.927-.69c-40.545 4.367-75.941 22.485-96.267 49.277-14.878 19.612-25.503 40.781-28.184 56.159-7.161 41.064 12.509 83.129 50.686 108.393 2.071 1.371 3.765 3.019 3.765 3.664 0 1.658-9.566 24.499-17.197 41.062-9.915 21.519-9.427 19.553-6.247 25.171 7.995 14.127 7.39 13.88 21.238 8.694 24.536-9.189 48.673-21.784 66.562-34.732 5.42-3.923 11.384-8.207 13.253-9.521l3.398-2.387 8.246 3.769c34.59 15.812 76.773 13.201 107.806-6.673 44.791-28.684 64.772-93.976 42.987-140.464-2.154-4.597-4.141-8.357-4.416-8.357-.275 0 1.219 3.712 3.321 8.25 9.368 20.225 11.159 44.818 5.017 68.874-2.411 9.446-9.18 25.45-12.235 28.928-1.228 1.398-1.914 2.048-1.525 1.443.39-.604.45-2.087.134-3.293-.315-1.207.237-3.884 1.228-5.948.991-2.065 1.742-5.441 1.669-7.504-.073-2.062.293-3.75.814-3.75.521 0 .94-1.462.932-3.25-.012-2.466-.249-2.888-.985-1.75-1.539 2.381-1.165.929 1.348-5.24 1.286-3.157 2.603-5.475 2.927-5.151.324.324.324-.426 0-1.666-.382-1.459-.214-2.023.474-1.598.669.414.872-.08.545-1.329-.286-1.092-.176-2.78.244-3.751.42-.971.999-2.44 1.287-3.265 1.018-2.923.068-29.637-1.38-38.817C491.559 255.188 411.181 200.524 333 208.945m-165.333 2.722c-1.151 1.15-.729 2.333.833 2.333.825 0 1.5-.675 1.5-1.5 0-1.562-1.183-1.984-2.333-.833M173 213c0 .55.45 1 1 1s1-.45 1-1-.45-1-1-1-1 .45-1 1m161.5 2.941c-2.2.45-7.452 1.341-11.672 1.981-10.197 1.545-10.8 1.671-17.526 3.651-14.163 4.168-35.542 14.313-41.357 19.625-1.688 1.541-3.459 2.802-3.937 2.802-1.38 0-15.241 14.087-18.285 18.584-1.521 2.246-3.546 4.946-4.502 6-.955 1.054-2.541 3.168-3.523 4.698-.982 1.53-2.172 2.543-2.645 2.251-1.1-.68-3.239 5.357-2.387 6.736.373.604.158.74-.511.326-.792-.489-1.155.425-1.155 2.905 0 2.129-.407 3.367-.989 3.007-.56-.346-.738.041-.411.893.773 2.015-.565 4.274-1.569 2.65-1.733-2.804-4.257 10.743-4.756 25.52-.871 25.814 7.446 48.477 24.196 65.93 2.639 2.75 4.063 4.065 3.164 2.921-.899-1.143-1.635-2.539-1.635-3.101 0-.563-2.031-4.116-4.514-7.896-15.154-23.073-18.92-55.742-9.382-81.397 23.788-63.985 103.251-90.799 180.287-60.834 24.104 9.375 52.825 30.378 64.247 46.982 1.391 2.021 3.166 3.92 3.945 4.219.779.299 1.417 1.084 1.417 1.746 0 .661.675 1.948 1.499 2.859.825.911 3.525 5.211 6 9.555 5.063 8.884 5.432 9.008 2.358.793-8.135-21.741-32.463-48.952-54.669-61.145-27.9-15.321-52.358-22.046-82.688-22.737-8.25-.188-16.8.026-19 .476M168 220c1.995 1.289 15 1.289 15 0 0-.587-3.406-.994-8.25-.985-5.696.011-7.786.316-6.75.985m21 0c0 .584 3.017.959 7.25.9 5.155-.071 6.528-.331 4.75-.9-3.644-1.167-12-1.167-12 0m150.118 8.547c-80.322 11.435-124.108 80.754-92.051 145.729 1.377 2.791 2.871 4.578 3.594 4.301.716-.275 1.024.081.731.845-.279.726.194 2.021 1.05 2.878.857.856 1.558 2.014 1.558 2.571 0 1.687 4.125 8.129 5.206 8.129.554 0 .751.67.437 1.488s-.241 1.381.163 1.25c1.163-.377 6.674 5.115 5.905 5.885-1.477 1.476 1.449 3.487 3.114 2.139 1.176-.952 1.378-.96.821-.033-.414.69.223 2.527 1.454 4.192 4.14 5.6.187 19.508-15.032 52.887-6.345 13.915-6.998 16.192-4.641 16.192.784 0 1.572.683 1.75 1.518.178.834 3.902-6.703 8.277-16.75 15.395-35.361 18.423-44.941 15.337-48.536-3.089-3.599-2.89-4.316.573-2.062 6.498 4.228 7.135 11.309 2.174 24.193-6.225 16.17-11.403 30.387-11.927 32.747-.77 3.469 1.958 6.023 5.139 4.811 3.143-1.197 2.813-2.085-.5-1.343-2.353.528-2.21.314.996-1.481 2.061-1.153 4.375-2.097 5.143-2.097.769 0 1.656-.675 1.973-1.5.316-.825 1.227-1.5 2.024-1.5 1.365 0 8.739-3.283 14.864-6.616 3.067-1.67 3.706-.857 1 1.272-1.527 1.201-1.405 1.229.954.221 1.487-.636 2.671-1.43 2.631-1.766-.261-2.213.798-3.304 5.885-6.059 3.145-1.703 6.295-2.876 7-2.606.787.302 1.28-.309 1.28-1.586 0-1.716.434-1.968 2.5-1.449 1.375.345 2.5.202 2.5-.319 0-.52.788-1.151 1.75-1.403 1.603-.419 1.597-.467-.077-.573-1.314-.083-.541-1.097 2.759-3.616 4.589-3.503 7.344-4.565 5.938-2.29-.669 1.083 2.05-.3 8.24-4.19 1.921-1.207 2.682-.85 8.497 3.99 7.952 6.617 22.023 13.501 31.893 15.602 11.12 2.368 31.336 2.455 31.798.138.216-1.085-.262-1.75-1.256-1.75-.883 0-1.874-.701-2.202-1.557-.329-.857-1.121-1.357-1.761-1.112-.64.246-1.978-.149-2.974-.878-1.934-1.414-2.146-1.334 7.395-2.797 1.375-.211-2-.451-7.5-.533-66.814-.998-94.052-62.639-44.995-101.826 23.347-18.65 61.769-24.513 91.031-13.892 19.18 6.962 38.032 23.351 45.011 39.129 1.209 2.734 1.882 3.441 2.165 2.275.227-.93-.338-2.834-1.254-4.233-1.359-2.074-1.462-3.124-.562-5.708 1.997-5.728.699-28.113-1.817-31.334-.444-.569-1.051-3.52-1.348-6.559-1.686-17.253-24.753-49.674-46.767-65.731a4038.404 4038.404 0 0 1-9.333-6.835c-2.678-1.968-9.203-5.574-14.5-8.015-5.297-2.44-10.471-4.914-11.498-5.497-1.026-.583-3.881-1.224-6.343-1.424-2.462-.201-5.514-1.045-6.783-1.877-6.834-4.478-40.561-7.445-57.389-5.049m168.152 12.936c-5.704 2.479-7.262 6.493-7.266 18.724L500 270.915l-3.458 2.759c-4.293 3.426-3.249 4.29 5.208 4.311 6.192.015 6.25.041 6.25 2.848 0 4.204.882 4.41 4.859 1.132 3.446-2.841 4.007-2.965 13.419-2.965 16.766 0 18.722-2.052 18.722-19.646 0-17.832-1.886-19.39-23.375-19.315-7.272.026-12.244.526-14.355 1.444m-.444 2.229c-4.031 2.501-4.826 5.355-4.826 17.327 0 9.861-.198 11.068-2 12.193-3.167 1.978-2.368 2.768 2.8 2.768 5.166 0 7.2 1.239 7.2 4.387 0 1.816.241 1.756 2.805-.7 2.683-2.57 3.264-2.687 13.394-2.687 10.306 0 10.673-.078 13.695-2.901l3.106-2.901v-11.676c0-11.572-.026-11.702-2.923-14.599L537.154 242l-13.827.027c-11.105.021-14.353.353-16.501 1.685m23.949 7.846c-.382.383-.02 2.002.806 3.598.825 1.597 1.26 3.292.966 3.769-.295.476.137 1.123.959 1.439 1.111.426 1.494-.16 1.494-2.285 0-3.013-3.04-7.705-4.225-6.521M512.2 253.2c-1.486 1.486-1.593 11.439-.133 12.341 1.554.961 1.66.62 2.114-6.791.422-6.881.14-7.671-1.981-5.55m5.38.712c-4.246 4.692 1.775 13.083 7.203 10.037 6.208-3.485 4.684-11.949-2.151-11.949-2.001 0-4.01.76-5.052 1.912m1.491 1.956c-1.337 2.497-.472 4.87 2.069 5.677 2.704.858 5.021-1.359 4.661-4.459-.395-3.393-5.11-4.246-6.73-1.218M531 263.333c0 2.076 1.184 2.76 2.658 1.536 1.938-1.609 1.649-2.869-.658-2.869-1.1 0-2 .6-2 1.333M520.5 267c-.378.611 1.156 1 3.941 1 2.507 0 4.559-.45 4.559-1s-1.773-1-3.941-1-4.219.45-4.559 1m-304.779 27.457c-19.055 42.935-1.343 96.305 41.529 125.131 4.48 3.012 6.75 5.196 6.75 6.492 0 2.441-8.121 22.04-16.678 40.249-3.574 7.606-6.31 14.017-6.079 14.247 1.088 1.088 18.955-38.482 24.269-53.747 5.06-14.539 5.059-14.543-4.744-22.006-38.451-29.27-55.04-72.64-42.813-111.927 2.695-8.66 2.126-8.261-2.234 1.561m374.974-6.346c-7.086 4.122-1.048 15.191 6.232 11.427 4.734-2.449 5.359-6.343 1.618-10.083-2.628-2.629-4.957-3.027-7.85-1.344m-.745 2.982c-2.614 4.886 2.071 9.571 6.957 6.957 2.344-1.255 2.87-5.873.893-7.85-1.977-1.977-6.595-1.451-7.85.893M403.5 328.419c-.55.209-4.274 1.133-8.275 2.053-4.001.92-8.501 2.312-10 3.094-1.499.782-3.337 1.424-4.085 1.428-1.888.008-13.077 6.068-15.701 8.502-1.187 1.102-4.409 3.804-7.158 6.004-4.863 3.89-13.679 14.633-14.953 18.22-.348.979-1.224 2.474-1.948 3.323-2.617 3.069-4.654 14.071-4.102 22.152.591 8.651 3.411 15.889 9.336 23.96 4.538 6.183 5.686 5.563 1.605-.867-11.221-17.68-9.879-38.662 3.646-57.016 5.436-7.376 21.685-18.815 30.325-21.347 5.704-1.672 17.923-4.054 18.983-3.701 1.086.362.113.887-10.6 5.715-3.81 1.717-7.548 4.008-8.307 5.091-.759 1.084-2.043 1.97-2.854 1.97-.811 0-1.733.672-2.048 1.494-.316.822-1.002 1.23-1.526.906-.524-.324-2.502 1.006-4.395 2.956-1.894 1.95-3.443 3.346-3.443 3.104 0-.243-1.238.91-2.75 2.563-5.586 6.104-8.647 10.076-8.854 11.488-.117.797-.929 2.165-1.805 3.04-.875.876-1.591 2.087-1.591 2.692s-.66 1.829-1.468 2.721c-2.604 2.878-4.096 15.123-2.778 22.807 1.525 8.895 8.539 22.229 11.693 22.229.721 0 1.879 1.373 2.575 3.052.774 1.869 1.785 2.852 2.609 2.536.74-.284 1.297-.195 1.239.198-.059.393.003 1.051.137 1.464.133.413.299 1.2.368 1.75s.462 1 .875 1h1.809c.582 0 .721-.562.308-1.25-.582-.968-.426-.988.691-.089.793.638 3.242 1.484 5.442 1.88 2.2.396 4.563 1.166 5.25 1.712.827.656 1.25.656 1.25-.001 0-.619 1.602-.713 4.25-.248 7.806 1.368 30.745-.351 41.25-3.093 8.478-2.213 12.062-3.047 13.702-3.191.937-.082 1.506-.345 1.266-.585-.682-.683 2.852-3.068 4.598-3.103 1.366-.028 6.4-4.261 17.434-14.662 1.65-1.555 3.337-2.725 3.75-2.599.413.126.75-.261.75-.861 0-1.112 3.707-5.52 7.75-9.214 1.238-1.131 2.25-2.602 2.25-3.269 0-.667.675-1.472 1.5-1.789.825-.316 1.5-1.489 1.5-2.607 0-1.164.659-2.031 1.544-2.031.849 0 1.437-.562 1.306-1.25-.131-.687.551-3.886 1.515-7.107.964-3.222 1.5-6.111 1.191-6.421-.31-.309.149-1.648 1.018-2.976 1.491-2.274 1.424-2.652-1.163-6.579-10.213-15.505-27.369-27.81-45.906-32.925-6.435-1.776-35.839-3.527-39.005-2.323m-281.669 5.111c-2.96 1.607-5.26 7.11-4.209 10.067 3.285 9.245 16.856 8.762 18.742-.667 1.645-8.227-6.724-13.641-14.533-9.4m.569 1.235c-6.663 4.449-3.232 13.61 5.051 13.484 5.035-.076 9.059-2.17 4.499-2.341-7.885-.296-8.387-.453-9.873-3.09-2.152-3.82.714-7.05 5.872-6.617 3.407.287 3.546.451 3.437 4.049-.092 3.033.242 3.75 1.75 3.75 2.553 0 2.579-6.043.035-8.345-1.866-1.689-8.725-2.256-10.771-.89m1.838 3.397c-1.969 1.969-1.433 3.325.591 1.493 1.006-.91 2.468-1.626 3.25-1.592.781.035.409.471-.829.968-2.631 1.058-2.998 4.468-.58 5.396 2.079.798 3.43-1.138 3.089-4.427-.291-2.811-3.484-3.875-5.521-1.838m262.524 15.811c-5.27 4.145-6.495 10.325-3.094 15.607.736 1.144 1.087 2.332.778 2.641-.309.308.861 1.574 2.6 2.812 1.931 1.375 3.412 1.856 3.807 1.238.356-.557 2.303-1.202 4.327-1.433 2.024-.231 3.46-.064 3.191.371-.95 1.537 1.403.768 2.757-.901 1.183-1.459 1.166-1.57-.128-.808-1.291.761-1.31.649-.137-.797.75-.925 1.832-1.391 2.405-1.037.572.353.761.19.419-.364-.343-.554.023-1.861.813-2.905 6.7-8.85-8.8-21.455-17.738-14.424m52.258 1.777c-4.116 4.036-5.778 9.35-3.605 11.523.685.684 1.096 1.694.913 2.243-.532 1.595 4.817 6.867 5.631 5.55.483-.781 1.444-.83 3.119-.161 1.494.597 1.847 1.047.922 1.174-.825.112.3.494 2.5.848 3.895.626 8.607-1.29 10.696-4.35 1.331-1.951-.043-1.73-2.113.34-1.145 1.146-2.645 2.053-3.333 2.015-.687-.037-.314-.521.83-1.077 4.786-2.322 7.029-11.112 3.955-15.501-.805-1.15-1.207-2.349-.892-2.664 1.029-1.029-6.79-3.69-10.844-3.69-3.225 0-4.662.693-7.779 3.75m47.011 7.75c0 .55.436 1.675.969 2.5.533.825.969 1.05.969.5s-.436-1.675-.969-2.5c-.533-.825-.969-1.05-.969-.5m13.666 15.893c-.409 1.041-.508 2.129-.221 2.417.913.912 1.715-.583 1.333-2.482-.35-1.74-.404-1.737-1.112.065M249 389.313c0 .172 1.445 1.635 3.212 3.25 2.844 2.601 2.232 1.013-.891-2.309-1.096-1.166-2.321-1.663-2.321-.941M487 391c-.589 1.1-.845 2-.57 2s.981-.9 1.57-2c.589-1.1.845-2 .57-2s-.981.9-1.57 2m6.564-.293c-.542 1.425-.428 1.54.56.56.684-.679.991-1.486.683-1.793-.308-.308-.867.247-1.243 1.233M266.5 403c.34.55.816 1 1.059 1s.441-.45.441-1-.477-1-1.059-1-.781.45-.441 1m87 21c.995 1.1 2.035 2 2.31 2 .275 0-.315-.9-1.31-2-.995-1.1-2.035-2-2.31-2-.275 0 .315.9 1.31 2m126.372 6.75c-1.243 1.586-1.208 1.621.378.378 1.666-1.307 2.195-2.128 1.372-2.128-.207 0-.995.788-1.75 1.75m-342.328 5.615c-2.99 2.99-3.282 6.657-.715 8.98 5.396 4.884 13.693-1.847 9.731-7.894-.883-1.348-2.009-2.451-2.501-2.451-.493 0-1.587-.265-2.433-.59-.907-.348-2.581.454-4.082 1.955m203.209.409c-1.009 1.15-1.244 2.394-.704 3.726.446 1.1.842 3.898.881 6.219.053 3.189.412 4.087 1.471 3.68.771-.295 3.584 1.022 6.25 2.928 17.836 12.747 50.634 16.726 78.822 9.562 7.431-1.889 26.731-10.014 29.027-12.221.654-.628.567-.717-.25-.256-.819.463-1.25.015-1.25-1.296 0-1.923-.271-1.891-6.85.822-32.093 13.234-75.686 9.211-98.15-9.058-7.42-6.034-7.518-6.077-9.247-4.106M474 436.059c0 .582.45.781 1 .441s1-.816 1-1.059-.45-.441-1-.441-1 .477-1 1.059m-336.293 1.949c-2.747 3.922.809 8.915 5.328 7.481 2.327-.739 3.673-5.138 2.261-7.394-1.567-2.505-5.86-2.555-7.589-.087m326.645 5.985c-2.205.89-4.108 3.025-2.661 2.985.445-.012 1.934-.902 3.309-1.978 2.731-2.136 2.611-2.322-.648-1.007m-7.224 1.907c-.754.478-1.193 1.405-.974 2.061.256.77 1.062.457 2.277-.884 1.909-2.11 1.192-2.758-1.303-1.177M317 448.059c0 .582.45.781 1 .441s1-.816 1-1.059-.45-.441-1-.441-1 .477-1 1.059M304 456c-.825.533-1.05.969-.5.969s1.675-.436 2.5-.969c.825-.533 1.05-.969.5-.969s-1.675.436-2.5.969m-37.493 18.989c-.35.566.051.734.941.393 1.732-.665 2.049-1.382.611-1.382-.518 0-1.216.445-1.552.989m300.993 4.166c-7.468 4.084-5.017 14.845 3.381 14.845 4.914 0 7.033-1.694 7.765-6.207 1.029-6.338-5.749-11.59-11.146-8.638m-.915 2.751c-1.096 1.212-1.609 3.115-1.405 5.219.754 7.799 10.966 7.525 11.625-.311.496-5.897-6.35-9.184-10.22-4.908m-307.226 1.239-6.14 2.063-2.223 7.806c-1.222 4.293-2.059 8.27-1.859 8.836.212.601 4.528-.558 10.363-2.784 12.096-4.614 22.032-9.196 18.25-8.416-2.282.47-2.75.222-2.75-1.46 0-3.616-1.016-4.994-3.315-4.493-1.572.343-1.811.21-.85-.472 1.059-.752.957-1.056-.5-1.473a49.92 49.92 0 0 1-3.335-1.098c-.825-.315-4.263.356-7.641 1.491m5.641-.752c0 .216.698.661 1.552.989.89.341 1.291.173.941-.393-.587-.951-2.493-1.406-2.493-.596m-24 4.54c0 .522.457 1.232 1.016 1.577.559.346.787.999.507 1.453-.585.946 2.026 7.64 3.283 8.417.46.284 1.658-1.822 2.663-4.682 1.005-2.859 2.238-5.727 2.739-6.373.696-.896.051-.91-2.726-.058-2.749.844-4.108.823-5.56-.084-1.057-.66-1.922-.773-1.922-.25m377.9 11.058c-15.822 8.363-16.023 30.902-.353 39.723 22.824 12.85 44.855-17.821 25.795-35.911-6.196-5.88-18.142-7.67-25.442-3.812m5.375.97c-9.22 2.219-16.37 13.042-14.634 22.154 3.342 17.544 25.51 22.608 35.719 8.159 10.136-14.347-3.854-34.459-21.085-30.313M217 522.57c-5.225 1.308-16.446 3.961-24.936 5.896-25.418 5.791-25.57 6.112-22.387 47.01 1.044 13.42 6.062 16.063 21.826 11.498 3.848-1.115 14.197-3.848 22.997-6.074 25.347-6.411 26.04-7.234 25.061-29.759-.971-22.335-1.287-24.067-5.086-27.866-3.853-3.853-4.753-3.89-17.475-.705m-14 5.983c-34.504 8.192-32.844 6.375-31.15 34.099 1.68 27.491-.007 26.657 35.387 17.486 30.523-7.908 31.097-8.376 29.684-24.138-.419-4.675-.798-12.145-.841-16.601-.096-9.71-1.33-13.736-4.677-15.261-3.405-1.551-3.023-1.611-28.403 4.415m10.867 20.916c-3.689 4.896-4.538 5.247-7.426 3.063-2.937-2.222-4.033-1.886-8.061 2.468-4.253 4.597-4.673 4.701-8.09 2.014-2.348-1.848-4.29-1.91-4.29-.139 0 .416 1.85 1.796 4.111 3.067l4.11 2.31 4.517-4.517 4.517-4.517 3.352 1.978 3.352 1.977 4.174-4.586c4.945-5.433 6.279-5.768 5.329-1.337l-.696 3.25 2.117-2.658c1.164-1.461 2.117-3.077 2.117-3.589 0-.758-4.165-3.253-5.43-3.253-.185 0-1.851 2.011-3.703 4.469m251.633 5.538c-7.7 1.53-15.738 3.084-17.862 3.453-8.667 1.509-9.766 5.067-6.656 21.542 3.174 16.811 3.534 16.942 31.343 11.461 25.254-4.978 25.065-4.806 22.273-20.233-3.864-21.349-3.715-21.266-29.098-16.223m-2 2.633c-14.971 2.834-18.401 3.809-20.385 5.792l-2.385 2.384 1.872 11.259c2.989 17.972 1.945 17.518 28.451 12.36 25.276-4.918 24.074-3.733 20.919-20.612-3.144-16.822-1.692-16.252-28.472-11.183m-3.99 6.344c-.737 1.193.199 3.016 1.549 3.016 1.217 0 1.225-2.707.01-3.457-.512-.317-1.213-.118-1.559.441m-5.852.691c-.362.362-.658 1.258-.658 1.992 0 1.489 2.578 1.825 3.43.446.681-1.101-1.868-3.342-2.772-2.438m-6.408 2.575c.229.688 1.017 1.25 1.75 1.25.733 0 1.521-.562 1.75-1.25.248-.744-.461-1.25-1.75-1.25s-1.998.506-1.75 1.25" fill-rule="evenodd"/><path fill="#054d05" stroke="#054d05" d="M0 361.501v361.502l365.75-.252 365.75-.251.251-361.25L732.003 0H0v361.501m.495.499c0 198.825.114 280.163.255 180.75.14-99.412.14-262.087 0-361.5C.609 81.838.495 163.175.495 362M40.409 27.377c-.291.757-.389 3.57-.219 6.25l.31 4.873h12l.316-3.85c.209-2.538-.047-3.625-.75-3.191-.586.362-1.066 1.757-1.066 3.1C51 36.785 50.604 37 46.5 37H42v-4.5c0-4.104.215-4.5 2.441-4.5 1.343 0 2.719-.45 3.059-1 .368-.596-.833-1-2.972-1-2.127 0-3.806.561-4.119 1.377m9.037-.29c-1.03 1.668 1.287 3.58 2.667 2.2C53.267 28.133 52.545 26 51 26c-.485 0-1.184.489-1.554 1.087m15.625 3.631a624.627 624.627 0 0 1-1.819 5.032c-.256.688.22 1.25 1.058 1.25.838 0 1.727-.562 1.976-1.25.358-.989.918-.975 2.681.069 3.091 1.831 3.469.99 1.804-4.007-1.858-5.576-3.951-5.979-5.7-1.094M73 32c0 3.778.367 5 1.5 5 .825 0 1.5-.675 1.5-1.5 0-2.187 5.684-1.978 6.83.25.495.962.698 2.313.452 3-.584 1.627 3.9 1.668 5.518.05.66-.66 1.2-2.01 1.2-3 0-1.657.161-1.639 2.032.232 1.442 1.442 2.499 1.77 3.642 1.131.885-.496 2.446-.683 3.468-.416 1.461.382 1.858-.073 1.858-2.13 0-1.44.45-2.617 1-2.617s1 1.125 1 2.5.45 2.5 1 2.5c1.459 0 1.227-6.706-.25-7.225-.687-.242-2.375-.136-3.75.236-1.375.371-3.37.236-4.433-.301-1.519-.767-2.322-.496-3.75 1.268-1.277 1.577-1.817 1.8-1.817.749 0-2.017-4.76-2.824-6.485-1.099C81.002 33.141 76 32.391 76 29.5c0-1.556-.567-2.5-1.5-2.5-1.133 0-1.5 1.222-1.5 5m71-3.441c0 .857-.409 1.306-.91.997-1.396-.863-4.09.488-4.09 2.051 0 .983-.595.798-2.023-.63-2.411-2.411-5.977-1.183-5.977 2.058 0 1.081-.45 1.965-1 1.965-1.302 0-1.297-2.699.008-3.505.618-.382.39-1.239-.591-2.221-1.807-1.807-3.85-.009-2.906 2.558.269.732.489 2.247.489 3.366 0 1.617.5 1.94 2.435 1.57 1.34-.256 3.003-.115 3.696.313.694.429 2.185.267 3.315-.359 1.952-1.082 1.905-1.173-.946-1.812l-3-.673 3.25-.119c2.275-.082 3.25.332 3.25 1.382 0 1.048 1.056 1.5 3.5 1.5h3.5v-5c0-2.75-.45-5-1-5s-1 .702-1 1.559M43.667 29.667c-.367.366-.667 1.996-.667 3.622 0 2.514.224 2.77 1.5 1.711.825-.685 1.5-.836 1.5-.337 0 .5.9.908 2 .908 1.431 0 2-.666 2-2.344 0-1.29-.399-2.098-.887-1.797-.487.301-1.442-.122-2.122-.941-1.346-1.622-2.291-1.856-3.324-.822m63.904.904c-2.234 2.235-.893 7.429 1.919 7.429 3.37 0 4.399-2.69 1.26-3.294-1.929-.372-1.858-.453.5-.57 1.838-.091 2.75.361 2.75 1.364 0 2.372 1.826 1.744 2.18-.75.223-1.57 1.075-2.318 2.82-2.474 1.375-.123 1.938.027 1.25.334-1.601.713-1.629 4.097-.038 4.627 4.714 1.572 7.779-3.104 4.31-6.573-1.645-1.644-9.778-1.384-10.352.331-.182.543-1.002.316-1.822-.504-1.892-1.892-2.82-1.876-4.777.08M85 33.5c0 .825.45 1.5 1 1.5s1-.675 1-1.5-.45-1.5-1-1.5-1 .675-1 1.5m56 0c0 .917.484 1.505 1.075 1.308.591-.197 1.075-.785 1.075-1.308s-.484-1.111-1.075-1.308c-.591-.197-1.075.391-1.075 1.308m-46.731 1.193c.973.254 2.323.237 3-.037.677-.274-.119-.481-1.769-.461-1.65.02-2.204.244-1.231.498m108.435 71.082c-1.225 1.353-1.665 4.308-1.853 12.453-.338 14.647.417 15.381 18.304 17.787 8.324 1.12 8.775 1.315 11.813 5.095 3.365 4.188 5.032 4.297 5.032.331 0-2.174.43-2.441 3.927-2.441 6.378 0 8.073-3.07 8.073-14.619 0-13.971-.636-14.491-21.821-17.818-19.372-3.042-21.375-3.109-23.475-.788m1.496 1.425c-.778.778-1.2 4.817-1.2 11.477 0 12.552-.04 12.512 15 14.829 9.126 1.406 10.791 1.967 12.721 4.286 2.173 2.611 2.253 2.626 3.657.705 1.039-1.421 2.38-1.882 4.855-1.668 4.608.397 5.396-.925 6.192-10.379 1.185-14.073.974-14.257-20.425-17.85-17.614-2.958-19.139-3.061-20.8-1.4M543 148.107c-25.489 4.046-25.014 3.664-24.968 20.066.036 12.969.811 14.793 6.69 15.743 2.918.472 3.851 1.12 4.098 2.847.415 2.91.974 2.826 4.632-.701 2.642-2.547 4.246-3.087 12.048-4.06 16.463-2.052 17.5-3.235 17.5-19.952 0-15.588-1.787-16.834-20-13.943m-5.937 3.006c-17.191 2.613-17.329 2.756-16.893 17.675.363 12.404.744 13.169 6.58 13.197 2.665.012 3.25.406 3.25 2.189v2.175l2.25-2.026c3.381-3.044 3.916-3.232 12.398-4.351 16.348-2.159 16.463-2.291 15.686-18.027-.284-5.745-.98-11.007-1.547-11.695-1.355-1.642-6.609-1.433-21.724.863m8.654 12.137c-1.323 1.951-1.802 2.084-3.608 1-2.906-1.745-4.133-1.576-6.808.937-1.796 1.687-2.599 1.915-3.514 1-1.377-1.377-2.787-1.557-2.787-.356 0 2.691 5.043 3.477 7.5 1.169 2.242-2.106 2.745-2.207 5-1 2.246 1.202 2.756 1.108 4.896-.902 1.762-1.655 2.515-1.897 2.871-.921.369 1.01.776 1.048 1.721.16.681-.639.935-1.652.566-2.25-1.13-1.829-4.225-1.212-5.837 1.163m-286.494 8.307c-4.45 3.116-1.244 12.443 4.277 12.443.677 0 2.416-.933 3.865-2.073 6.73-5.293-1.119-15.29-8.142-10.37m.977 1.643c-1.992 1.992-1.45 6.596.926 7.868 3.339 1.787 6.874-.276 6.874-4.011 0-4.232-4.968-6.689-7.8-3.857m257.572 22.584c-3.36.424-6.772 4.558-6.772 8.205 0 6.284 9.238 10.63 13.512 6.356 6.5-6.5 2.243-15.696-6.74-14.561m-2.137 3.289c-3.207 2.522-3.497 6.837-.635 9.427 1.1.995 2 1.338 2 .762 0-.576-.675-1.307-1.5-1.624-2.129-.817-1.858-5.28.461-7.599 3.358-3.358 8.039-1.009 8.039 4.034 0 3.802-.063 3.868-3.25 3.416-2.86-.407-2.95-.356-.75.425 1.375.488 1.862.931 1.083.986-.779.055-1.155.361-.835.681.319.32 1.519.079 2.666-.535 3.345-1.79 3-9.748-.479-11.071-3.482-1.324-3.784-1.275-6.8 1.098m1.99 2.725c-.791 1.279 1.043 3.525 2.263 2.771 1.606-.992 1.368-3.569-.329-3.569-.793 0-1.663.359-1.934.798m-354.668 3.277c-4.837 1.814-5.957 5.458-5.957 19.379 0 22.155-.183 22.048 36.324 21.276 14.766-.312 27.069-.79 27.341-1.062.272-.272-1.229-2.073-3.335-4.003l-3.83-3.509-.5-12.828c-.694-17.807-.764-17.869-21.053-18.777-7.396-.331-16.372-.788-19.947-1.016-3.575-.228-7.644.015-9.043.54m-1.302 3.754c-1.375 1.519-1.655 4.212-1.655 15.927 0 19.571-2.235 18.244 30.724 18.244h25.454l-2.589-3.077c-2.457-2.919-2.589-3.663-2.589-14.577 0-16.599-.218-16.783-20.915-17.679-23.982-1.038-26.533-.934-28.43 1.162m171.845-.167c-47.359 5.712-83.801 26.639-104.201 59.838-3.379 5.5-7.779 12.616-9.777 15.813-19.745 31.596-16.188 76.488 8.672 109.452 8.611 11.418 23.962 25.623 32.556 30.126 1.238.649 2.25 1.617 2.25 2.152 0 1.652-9.727 24.585-18.065 42.592-4.364 9.425-7.935 17.856-7.935 18.736 0 .881 2.296 5.43 5.102 10.109 6.016 10.031 3.894 9.876 24.398 1.79 23.575-9.297 44.075-20.227 61.37-32.723 4.603-3.326 10.064-7.273 12.135-8.772l3.765-2.725 9.161 3.973c54.089 23.46 115.181 4.463 142.221-44.224 21.439-38.602 22.674-81.414 3.255-112.819-2.544-4.114-6.65-11.038-9.124-15.386-29.545-51.919-95.968-85.148-155.783-77.932M167 212.5c0 .825.675 1.5 1.5 1.5s1.5-.675 1.5-1.5-.675-1.5-1.5-1.5-1.5.675-1.5 1.5m6-.083c0 .87.713 1.583 1.583 1.583.871 0 1.406-.534 1.188-1.187-.618-1.855-2.771-2.162-2.771-.396m-6.002 7.333c.001.902 2.37 1.25 8.502 1.25 11.051 0 11.049-1.756-.002-2.177-6.309-.24-8.502 0-8.5.927M189 220c0 .556 2.667 1 6 1 3.3 0 6.326.034 6.725.075.399.041.886-.409 1.083-1 .233-.699-2.117-1.075-6.725-1.075-4.055 0-7.083.427-7.083 1m308.667 4.667c-.367.366-.667 1.131-.667 1.7 0 .626.466.567 1.183-.15.651-.651.951-1.416.667-1.7-.284-.285-.817-.217-1.183.15M348 232.772c0 .519-2.587 1.234-5.75 1.59-7.504.845-8.509 1.044-10 1.975-.687.43-1.612.557-2.055.283-.443-.273-4.606.872-9.25 2.546-4.645 1.674-9.518 3.286-10.83 3.581-4.138.933-16.811 8.678-16.367 10.003.23.688-.065 1.25-.657 1.25-.592 0-2.291 1.365-3.778 3.032-1.574 1.767-3.305 2.801-4.147 2.478-1.438-.552-4.651 2.939-4.682 5.086-.033 2.302-9.451 10.976-10.366 9.547-.548-.857-1.101-.98-1.499-.335-.347.562-.099 1.199.552 1.416 1.718.572.036 2.776-2.119 2.776-1.129 0-1.777.67-1.691 1.75.09 1.129-.57 1.75-1.86 1.751-1.33.001-1.999.67-2 2 0 1.244-.765 2.109-2.025 2.289-1.778.255-6.476 8.088-6.476 10.797 0 .442-1.068 1.953-2.373 3.358-3.516 3.787-7.647 24.061-7.615 37.377.019 7.789 7.999 34.678 10.292 34.678.448 0 .483.536.078 1.191-.405.655.93.161 2.966-1.097 4.488-2.774 7.972-2.21 5.209.843-4.923 5.44-2.534 10.354 11.943 24.563 15.959 15.663 16.844 17.992 13.006 34.208-.511 2.158-.458 2.171 2.315.58 2.699-1.549 2.943-1.524 4.993.526l2.156 2.156-2.485.623c-1.551.389-2.485 1.335-2.485 2.515 0 1.041-.45 1.892-1 1.892s-1-.402-1-.893-.635-1.137-1.411-1.435c-1.125-.431-1.242.052-.574 2.38.951 3.315-.316 4.773-2.542 2.925-2.316-1.921-4.485 5.223-2.866 9.441.669 1.745 4.915 2.164 5.893.582.34-.55 1.829-1.01 3.309-1.022 1.48-.012 3.816-.902 5.191-1.978s3.084-1.966 3.798-1.978c1.554-.026 12.56-6.909 13.035-8.151.184-.479 1.018-.871 1.855-.871s3.523-1.35 5.969-3.001c7.657-5.168 10.696-6.432 15.543-6.466 2.968-.021 4.35.317 3.75.917-2.146 2.147 1.899 2.972 5.1 1.04 1.204-.726 1.236-.61.188.685-1.375 1.698.678 4.576 2.187 3.066.408-.407.592-.122.408.634-.183.756.244 1.586.948 1.844.705.258 1.214.089 1.132-.375-.355-2 .183-2.509 1.498-1.418.981.814 1.611.847 2.069.106.362-.585 1.077-.806 1.589-.489.512.316.931.008.931-.684 0-.979.267-.992 1.2-.059.66.66 2.123 1.164 3.25 1.121 1.774-.068 1.209-.688-1.136-1.246-2.829-.673-18.228-17.985-21.058-23.675-16.304-32.78 8.227-71.798 52.68-83.79 13.354-3.602 39.219-3.818 51.564-.43 11.752 3.225 34.321 15.739 37.249 20.655.413.693 2.92 3.691 5.572 6.663 4.252 4.764 4.565 4.959 2.651 1.652-1.193-2.062-1.9-3.806-1.571-3.875.33-.069 1.012-.181 1.516-.25s1.291-.535 1.75-1.035c.493-.539.259-.578-.575-.094-1.115.647-1.253.318-.667-1.59.408-1.323.614-3.981.459-5.906-.156-1.925-.293-5.3-.305-7.5l-.023-4-2.267 2.284c-1.246 1.256-2.218 2.606-2.159 3 .316 2.118-.338 2.338-2.13.716-2.727-2.468-2.52-3.885 1-6.847 3.074-2.586 4.286-8.74 2-10.153-.55-.34-1-1.428-1-2.418 0-2.222-6.495-16.43-9.381-20.521C465.725 284.953 447.074 264 444.745 264c-.433 0-4.494-2.812-9.024-6.25-8.579-6.509-12.234-8.543-24.668-13.725-11.537-4.808-14.96-5.347-17.168-2.702-1 1.197-1.833 2.74-1.852 3.427-.048 1.83-1.471 1.528-3.533-.75-1.747-1.93-1.747-2.07.006-4.006 2.015-2.227 1.428-3.401-1.839-3.676-6.183-.521-12.442-1.501-14.667-2.298-1.375-.492-3.85-.828-5.5-.746-1.65.083-6.488-.209-10.75-.647-4.751-.489-7.75-.433-7.75.145m-76.61 8.478c-4.289 2.887-10.294 7.676-13.344 10.641-6.194 6.022-4.352 4.957 3.834-2.216 2.959-2.593 8.247-6.568 11.75-8.834 5.781-3.739 7.139-4.841 5.964-4.841-.224 0-3.916 2.363-8.204 5.25m119.482-.5c-1.243 1.586-1.208 1.621.378.378.962-.755 1.75-1.543 1.75-1.75 0-.823-.821-.294-2.128 1.372m115.577.764c-5.304 2.683-6.449 5.939-6.449 18.339v11.045l-3.5 2.67c-4.918 3.751-4.47 4.305 3.75 4.638l7.25.294.313 3.25c.381 3.953.243 3.946 5.346.25 3.964-2.872 4.582-3 14.456-3 10.112 0 10.385-.061 13.85-3.104l3.535-3.103v-12.881c0-12.815-.015-12.897-2.915-16.146l-2.916-3.266-14.834-.265c-11.785-.21-15.462.053-17.886 1.279m-1.143 3.904c-2.771 2.387-2.806 2.56-2.806 13.893 0 9.525-.297 11.805-1.75 13.411-2.569 2.841-2.268 3.143 3.459 3.476 4.517.262 5.282.612 5.757 2.638l.547 2.335 2.651-2.085c2.294-1.805 4.026-2.086 12.844-2.086H536.2l3.4-3.4 3.4-3.4v-10.913c0-15.897-.485-16.287-20.249-16.287-14.042 0-14.754.099-17.445 2.418m-120.639-.751c-1.042 1.042-.798 2.06.904 3.762 1.81 1.809 3.429 2.051 3.429.512 0-.582-.526-.734-1.17-.336-.779.482-.963.184-.551-.89.457-1.19.194-1.45-1.004-.99-1.214.466-1.461.201-.98-1.051.68-1.771.47-2.106-.628-1.007M380 250.465c0 .255 1.012 1.004 2.25 1.664 2.04 1.087 2.122 1.043.878-.465-1.278-1.549-3.128-2.258-3.128-1.199m132.742 1.66c-2.284 1.278-2.606 13.875-.355 13.875 1.014 0 1.508-1.95 1.837-7.25.529-8.521.682-7.836-1.482-6.625m17.83-.242c-.365.592-.098 2.097.594 3.346s1.148 2.656 1.011 3.126c-.136.471.274 1.483.91 2.25.913 1.1.799 1.395-.538 1.395-1.917 0-1.789 3.088.155 3.735 1.694.564 3.138-5.625 2.144-9.188-1.023-3.662-3.336-6.185-4.276-4.664m-154.507 1.538c-.976 1.177-.782 1.319 1.128.827 2.059-.531 2.159-.415.935 1.079-1.206 1.47-1.115 1.673.75 1.673 2.41 0 2.536-.357 1.087-3.066-1.231-2.3-2.3-2.44-3.9-.513m141.059 1.149c-3.202 4.07.135 10.319 5.553 10.398 2.378.035 6.323-4.258 6.323-6.88 0-5.936-8.09-8.332-11.876-3.518m3.126.092c-1.703.688-1.581 4.819.186 6.285 1.873 1.554 5.564-.291 5.564-2.782 0-3.182-2.607-4.771-5.75-3.503M373 256.69c0 .55.9 1.815 2 2.81 1.1.995 2 1.36 2 .81s-.9-1.815-2-2.81c-1.1-.995-2-1.36-2-.81m-124.938 5.236c-1.812 2.159-4.157 5.422-5.211 7.25l-1.917 3.324 2.283-2.803c1.256-1.541 4.028-4.804 6.16-7.25 2.133-2.446 3.45-4.447 2.928-4.447-.522 0-2.431 1.767-4.243 3.926m121.376-1.825c-.375.605.325 2.068 1.554 3.25l2.235 2.149-1.326-2.5c-.729-1.375-1.23-2.837-1.113-3.25.32-1.132-.578-.899-1.35.351m150.112 6.818c-.312.505.729 1.203 2.313 1.551 3.257.715 8.137-.231 8.137-1.578 0-1.181-9.719-1.156-10.45.027M236.732 278c-.942 1.1-1.481 2-1.199 2 .282 0-.233 1.139-1.145 2.531-.913 1.392-1.403 2.787-1.091 3.1.313.312 1.731-1.727 3.153-4.532 2.824-5.573 2.874-6.127.282-3.099M446 277.777c0 1.582-.435 1.993-1.622 1.538-1.34-.514-1.297-.24.25 1.579 1.789 2.104 1.886 2.116 2.177.262.22-1.395.923-1.827 2.5-1.537 1.207.222 1.52.121.695-.223-.825-.344-2.062-1.335-2.75-2.202-1.101-1.388-1.25-1.318-1.25.583m143.455 11.678c-1.35 1.35-2.455 3.395-2.455 4.545 0 2.698 4.302 7 7 7 2.819 0 7-4.349 7-7.28 0-5.797-7.312-8.499-11.545-4.265m1.2 1.374c-2.151 2.377-2.095 4.462.174 6.516 3.321 3.006 8.171.647 8.171-3.974 0-4.301-5.294-5.914-8.345-2.542m-376.445 7.968c-1.22 3.137-2.329 7.278-2.464 9.203-.135 1.925-.555 3.734-.933 4.02-.379.287-1.007 4.045-1.398 8.352l-.709 7.831 2.488-2.487c2.241-2.242 2.551-3.563 3.133-13.352.355-5.975 1.134-12.594 1.732-14.708 1.661-5.875.633-5.24-1.849 1.141m119.542-1.547c-.379.962-1.448 1.75-2.376 1.75-1.54 0-1.53.173.124 2 2.125 2.349 3.5 2.574 3.5.573 0-.784.788-1.632 1.75-1.884 1.555-.406 1.564-.47.073-.573-.922-.064-1.835-.904-2.029-1.866-.336-1.667-.386-1.667-1.042 0m-4.732 5.274c.696.838 1.471 1.318 1.723 1.067.693-.694-.716-2.591-1.924-2.591-.664 0-.588.574.201 1.524m-102.396 1.015c-.343.893-.585 2.375-.538 3.293.047.917.482.341.967-1.282.943-3.156.609-4.718-.429-2.011m96.867 2.471c-1.586 1.752-1.648 2.328-.487 4.498 1.441 2.691 2.289 2.546 2.509-.43.087-1.184-.353-1.693-1.187-1.373-.729.28-1.326.066-1.326-.476 0-1.53 2.792-3.475 3.956-2.756.574.355 1.044.168 1.044-.414 0-1.741-2.562-1.201-4.509.951M225.158 312c0 1.375.227 1.938.504 1.25.278-.687.278-1.812 0-2.5-.277-.687-.504-.125-.504 1.25m92.536-.314c-.631 1.021.264 2.127 2.963 3.66.767.436.981-.013.636-1.333-.286-1.095-.881-1.768-1.321-1.496-.441.273-.982-.048-1.204-.712-.279-.839-.606-.876-1.074-.119M314 315.845c0 .465.97 1.702 2.155 2.75l2.155 1.905-1.77-2.75c-1.825-2.836-2.54-3.372-2.54-1.905m-5.052 4.711-2.343 2.493 2.197 2.198c1.209 1.209 2.198 1.905 2.198 1.547 0-.358-.72-1.371-1.599-2.25-1.279-1.279-1.355-1.895-.378-3.072 1.592-1.918 3.355-1.899 2.615.028-.409 1.067.066 1.477 1.643 1.421 1.221-.043 1.657-.306.969-.583-.687-.278-1.25-1.116-1.25-1.862 0-2.479-1.68-2.446-4.052.08m-96.848 6.739c-1.265 2.107-1.243 2.128.479.479.991-.95 1.587-1.942 1.324-2.205-.263-.263-1.074.514-1.803 1.726m91.341-1.199c-.373.603.051 1.824.941 2.714 1.047 1.048 1.618 1.19 1.618.404 0-.668-.498-1.214-1.107-1.214s-.848-.675-.531-1.5c.668-1.743.069-2.006-.921-.404m-79.189 4.404c.011 2.2.216 2.982.455 1.738.239-1.244.23-3.044-.02-4s-.446.062-.435 2.262M209 332.544c0 1.534.338 2.382.75 1.884.412-.497 1.109-1.175 1.547-1.505.439-.33.101-1.177-.75-1.884-1.333-1.106-1.547-.899-1.547 1.505m-88.478 1.706c-7.029 6.107-2.693 15.75 7.082 15.75 5.048 0 5.563-.226 7.407-3.25 5.953-9.764-5.884-19.976-14.489-12.5m361.937-1.183c-1.076 1.741.149 2.11 1.521.457.789-.95.865-1.524.201-1.524-.584 0-1.36.48-1.722 1.067m-271.839 2.064c-5.577 6.514 5.115 39.558 18.562 57.369 8.152 10.796 23.141 24.513 31.525 28.849 1.757.908 3.622 2.416 4.145 3.351.764 1.366 1.266.642 2.55-3.681 2.579-8.685 2.366-9.296-5.104-14.626-8.58-6.122-20.274-17.228-26.18-24.863-5.339-6.901-14.118-21.413-14.118-23.337 0-.736-.506-.998-1.155-.598-.689.426-.884.276-.483-.371.369-.597-.442-4.398-1.801-8.447-1.359-4.049-2.774-9.255-3.144-11.569-.748-4.682-2.075-5.256-4.797-2.077m-89.547 1.504c-4.347 5.526-1.289 11.365 5.953 11.365 2.736 0 4.974-.45 4.974-1s-1.768-1-3.929-1c-7.138 0-9.895-6.489-4.042-9.515 4.599-2.378 8.599-.214 8.142 4.407-.402 4.078 2.154 3.925 2.64-.159.759-6.385-9.526-9.454-13.738-4.098m355.644 1.013c-.911 1.476 2.813 5.261 4.282 4.352 1.068-.66 1.003-1.141-.337-2.481-.914-.914-1.669-1.292-1.677-.84-.009.451-.402.21-.875-.536s-1.1-.969-1.393-.495m-255.638 2.935c.048 1.165.285 1.402.604.605.289-.722.253-1.585-.079-1.917-.332-.332-.568.258-.525 1.312M125.5 341c-.816 1.32.277 3 1.952 3 1.463 0 2.767-2.448 1.812-3.402-.932-.933-3.081-.703-3.764.402m290.402.432c-.328.327-.216 2.951.248 5.831.935 5.808 2.63 11.933 2.764 9.987.047-.687.712-1.25 1.478-1.25.765 0 1.674-1.125 2.019-2.5.345-1.375 1.003-2.5 1.462-2.5 1.824 0 6.008-4.928 5.859-6.901-.115-1.537-.836-2.099-2.695-2.101-1.395-.002-4.338-.264-6.539-.582-2.201-.318-4.269-.311-4.596.016M229.08 362c1.458 3.061 1.92 3.628 1.92 2.358 0-.537-.7-1.849-1.555-2.917-1.467-1.83-1.487-1.798-.365.559m38.087 2c.183.825-.229 1.387-.917 1.25-.687-.137-1.25.11-1.25.55 0 .932 2.124 3.2 2.996 3.2.9 0 .626-4.712-.329-5.667-.459-.458-.684-.158-.5.667m-4.667 5c.34.55 1.068 1 1.618 1s.722-.45.382-1c-.34-.55-1.068-1-1.618-1s-.722.45-.382 1m-4.155 3.543c-.93 2.424.368 2.862 1.609.543.774-1.447.789-2.086.05-2.086-.587 0-1.333.694-1.659 1.543M236 374.378c0 .207.787.995 1.75 1.75 1.586 1.243 1.621 1.208.378-.378-1.307-1.666-2.128-2.195-2.128-1.372m182 1.587c0 1.119-.473 2.035-1.052 2.035-.579 0-1.532 1.378-2.119 3.061-.7 2.008-1.555 2.874-2.486 2.517-.78-.299-1.685.149-2.01.996-.325.848-1.218 1.3-1.985 1.006-.766-.294-2.3.372-3.407 1.479-1.108 1.108-2.382 1.787-2.831 1.509-.449-.278-2.253.037-4.008.7-2.581.974-3.351.948-4.022-.139-.58-.937-1.036-1.009-1.514-.236-.376.609-2.345 1.1-4.375 1.092-2.751-.012-3.309-.262-2.191-.985 1.213-.784 1.069-.972-.75-.985-1.238-.008-2.25.435-2.25.985s-.845 1-1.878 1c-4.114 0-4.706 2.877-1.294 6.29 2.453 2.452 3.172 2.779 3.172 1.441 0-2.277 6.775-2.482 7.638-.231.317.825 1.203 1.5 1.969 1.5s1.393.45 1.393 1c0 2.113 2.814.875 3.411-1.5.733-2.924 6.589-3.793 6.589-.979 0 .837 1.125 2.034 2.5 2.661 1.375.626 2.5 1.572 2.5 2.101 0 .529.675.402 1.5-.283s1.507-2.202 1.515-3.372c.01-1.35.293-1.692.773-.937 1.151 1.81 12.212-9.275 12.212-12.238 0-1.284-.415-2.592-.923-2.905-.508-.314-1.219-1.92-1.581-3.568-.816-3.711-4.496-6.18-4.496-3.015m-178 12.808c0 1.597 3.982 5.578 4.78 4.78.338-.337-.6-1.827-2.083-3.311-1.483-1.483-2.697-2.144-2.697-1.469M428 389c0 .55 1.238.993 2.75.985 2.143-.012 2.419-.23 1.25-.985-1.957-1.264-4-1.264-4 0m-189.988 6.023c.582 1.087 1.478 1.977 1.992 1.977 1.377 0 .078-2.755-1.604-3.4-1.16-.445-1.237-.164-.388 1.423m187.552 3.684c-.542 1.425-.428 1.54.56.56.684-.679.991-1.486.683-1.793-.308-.308-.867.247-1.243 1.233m-5.393 2.39c-.72 1.154-1.064 2.343-.764 2.643.817.817 3.593-1.781 3.593-3.362 0-2.02-1.33-1.681-2.829.719M406 402.5c0 .825.436 1.5.969 1.5.532 0 .709-.675.393-1.5-.317-.825-.753-1.5-.969-1.5-.216 0-.393.675-.393 1.5m-63 8.5c.589 1.1 1.295 2 1.57 2 .275 0 .019-.9-.57-2s-1.295-2-1.57-2c-.275 0-.019.9.57 2m-41 10.378c0 .207.788.995 1.75 1.75 1.586 1.243 1.621 1.208.378-.378-1.307-1.666-2.128-2.195-2.128-1.372m-4.273 2.228c-.872.872 2.11 4.408 3.678 4.362.602-.017.381-.58-.493-1.25-.873-.67-1.782-1.809-2.021-2.53-.238-.722-.762-.984-1.164-.582m-3.135 6.496c2.138 2.362 2.979 2.403 2.979.146 0-1.13-.833-1.804-2.348-1.898-2.245-.14-2.273-.062-.631 1.752m55.67-.41c.969.253 1.462.945 1.096 1.538-.373.603-.204.793.383.43.577-.357 1.318.052 1.647.909.329.857 1.066 1.268 1.638.915 1.25-.773-3.219-4.538-5.184-4.368-.738.064-.549.323.42.576m-87.638 1.847c-.965 2.514-.681 3.163.498 1.136.584-1.004.851-2.036.593-2.293-.257-.258-.749.263-1.091 1.157M290 433.5c-.707.852-1.06 1.773-.785 2.048.275.275 1.078-.196 1.785-1.048.707-.852 1.06-1.773.785-2.048-.275-.275-1.078.196-1.785 1.048m-152.826 2.814c-4.306 4.584-1.681 10.686 4.598 10.686 5.94 0 8.312-7.215 3.593-10.927-3.406-2.68-5.504-2.618-8.191.241m122.451 2.665c-2.256 5.64-1.909 6.479.467 1.125 1.072-2.417 1.772-4.574 1.554-4.791-.218-.218-1.127 1.432-2.021 3.666M138.2 437.2c-4.094 4.094 1.522 11.171 5.796 7.304 3.583-3.243 2.039-8.504-2.496-8.504-1.155 0-2.64.54-3.3 1.2m204.984 1.243c-1.063 9.923-.782 10.638 5.826 14.807 6.628 4.182 8.652 4.564 10.598 2 1.265-1.667 1.33-1.667 1.36 0 .02 1.073.806 1.75 2.032 1.75 1.1 0 2 .502 2 1.117 0 .624-.882.886-2 .593-1.1-.287-2-.179-2 .241 0 1.617 20.315 6.196 28.849 6.503 4.758.171 7.156.11 5.328-.136-3.27-.44-3.297-.486-1.727-2.883 1.342-2.047 1.367-2.435.156-2.435-.791 0-1.589-.392-1.773-.871-.183-.478-4.873-2.006-10.422-3.395-12.503-3.129-22.923-7.89-31.459-14.374-5.828-4.427-6.572-4.748-6.768-2.917m10.199-1.254c-.45.729-.235.837.617.311.848-.524 1.067-.418.622.302-.377.611-1.347.857-2.154.547-2.093-.803-1.815 1.027.469 3.094 1.089.985 2.47 1.423 3.154 1 .734-.453.96-.335.569.298-.935 1.513 2.467 2.55 3.757 1.145.787-.857.76-.998-.098-.516-.649.364-1.47.194-1.824-.378-.354-.573-.074-.918.621-.767.696.151 1.42-.422 1.609-1.273.441-1.986-6.304-5.443-7.342-3.763m9.95.151c0 .677.825 1.231 1.834 1.231 1.008 0 1.833-.112 1.833-.25s-.825-.692-1.833-1.232c-1.317-.704-1.834-.634-1.834.251m-1.823 5.676c.346.559 1.047.758 1.559.441 1.387-.857 1.129-1.457-.628-1.457-.857 0-1.276.457-.931 1.016m-.51 2.08c0 .821 4.232 2.005 4.873 1.364.253-.253-.091-.46-.765-.46s-.965-.423-.645-.939c.319-.517-.329-.871-1.441-.788-1.112.084-2.022.454-2.022.823m-108.321 10.45c-2.349 4.927-2.018 5.765.437 1.11 1.116-2.115 1.852-4.022 1.636-4.238-.217-.216-1.149 1.192-2.073 3.128m312.956 24.527c-5.009 3.939-2.676 12.875 3.785 14.496 2.746.69 8.05-1.746 8.959-4.114 3.194-8.323-5.922-15.749-12.744-10.382M567 482c-4.061 4.061-1.633 10.333 4 10.333 5.736 0 8.076-6.321 3.811-10.294-2.765-2.577-5.261-2.589-7.811-.039m56.23 13.98c-11.076 2.627-18.94 15.1-16.415 26.037 4.101 17.769 23.784 24.722 37.279 13.171 17.926-15.345 2.304-44.702-20.864-39.208m-2.73 4.685c-12.519 6.615-14.287 24.342-3.259 32.685 18.157 13.736 40.94-9.003 27.143-27.091-5.101-6.688-16.681-9.4-23.884-5.594M601 506.35c0 .231 1.18 1.193 2.623 2.139 1.443.945 2.318 1.224 1.944.62-.713-1.154-4.567-3.483-4.567-2.759m-387.5 16.699c-6.05 1.516-16.4 3.98-23 5.475-14.433 3.269-16.729 4.353-20.142 9.511l-2.634 3.98.724 18.047c1.185 29.564 3.68 32.757 21.552 27.582 4.675-1.354 15.89-4.328 24.923-6.608 25.373-6.405 25.658-6.769 24.678-31.503-.84-21.218-1.148-22.927-4.797-26.575-3.685-3.685-6.284-3.674-21.304.091m-11.42 6.043c-33.1 7.968-31.709 6.426-30.062 33.339 1.647 26.92.323 26.181 32.453 18.117 35.571-8.927 33.139-6.372 31.694-33.295-1.044-19.458-1.098-19.787-3.668-22.003-3.317-2.861-1.758-3.058-30.417 3.842m11.273 20.597c-3.92 4.624-4.008 4.666-6.386 3-3.618-2.534-5.118-2.126-9.07 2.468l-3.603 4.189-3.14-2.236c-2.915-2.076-5.154-2.141-5.154-.15 0 .973 6.595 5.04 8.173 5.04.582 0 2.781-1.885 4.886-4.188l3.828-4.188 3.609 1.938 3.609 1.938 4.197-4.834c4.346-5.003 6.06-5.261 5.113-.768l-.548 2.602 2.556-3 2.556-3-2.239-1.728c-3.263-2.517-3.998-2.261-8.387 2.917m264.147 2.863c-.55.217-8.425 1.746-17.5 3.397-22.704 4.13-22.93 4.425-19.042 24.83 3.189 16.738 2.812 16.598 30.231 11.193 27.073-5.337 26.628-4.851 22.829-24.974-2.35-12.45-4.324-15.051-11.324-14.919-2.307.043-4.644.256-5.194.473m-10.5 4.687c-28.457 5.508-27.071 4.276-23.879 21.23 3.078 16.345 1.614 15.757 27.027 10.867 25.421-4.89 24.564-4.13 21.772-19.308-1.059-5.76-2.159-11.204-2.442-12.099-.482-1.517-4.699-4.077-6.275-3.81-.387.066-7.678 1.47-16.203 3.12M459 565c0 1.506.522 2.046 1.75 1.81.962-.186 1.75-1 1.75-1.81s-.788-1.624-1.75-1.81c-1.228-.236-1.75.304-1.75 1.81m-6 .927c0 1.431.642 2.073 2.073 2.073 2.563 0 2.272-3.31-.334-3.812-1.2-.231-1.739.308-1.739 1.739m-5.312-.281c-1.374 1.374-.662 3.496 1.062 3.164.962-.186 1.75-.969 1.75-1.74 0-1.579-1.764-2.472-2.812-1.424" fill-rule="evenodd"/><path fill="#040404" stroke="#040404" d="M0 361.501v361.502l365.75-.252 365.75-.251.251-361.25L732.003 0H0v361.501m.495.499c0 198.825.114 280.163.255 180.75.14-99.412.14-262.087 0-361.5C.609 81.838.495 163.175.495 362M40.409 27.377c-.291.757-.389 3.57-.219 6.25l.31 4.873h12l.31-3.75c.18-2.171-.136-3.75-.75-3.75-.583 0-1.06 1.35-1.06 3 0 2.889-.167 3-4.5 3H42v-4.5c0-4.333.111-4.5 3-4.5 1.65 0 3-.45 3-1 0-1.553-6.984-1.206-7.591.377m9.037-.29c-1.03 1.668 1.287 3.58 2.667 2.2C53.267 28.133 52.545 26 51 26c-.485 0-1.184.489-1.554 1.087m15.166 4.539C62.667 37.334 62.679 37 64.417 37c.779 0 1.62-.562 1.869-1.25.362-1 .876-1 2.57 0C71.823 37.502 76 37.356 76 35.5c0-1.861 5.927-2.102 6.152-.25.084.688.197 1.925.252 2.75.067 1.028 1.197 1.5 3.587 1.5 3.068 0 3.567-.363 4.131-3 .353-1.65.695-2.261.76-1.357.148 2.057 2.788 3.141 4.846 1.989.856-.479 2.392-.652 3.414-.385 1.461.382 1.858-.073 1.858-2.13 0-1.44.45-2.617 1-2.617s1 1.12 1 2.489c0 2.561-.087 2.529 7 2.529s7 .032 7-2.529c0-1.938.498-2.472 2.25-2.41 1.237.043 1.688.306 1 .583-1.36.549-1.716 3.932-.494 4.687 2.111 1.305 6.149-.674 6.538-3.205l.406-2.644.15 2.822c.123 2.311.557 2.769 2.4 2.53 1.237-.159 2.817.062 3.509.493 1.456.907 5.241-.065 5.241-1.346 0-.476-1.238-1.054-2.75-1.283-2.56-.387-2.525-.427.5-.566 2.183-.101 3.25.307 3.25 1.243 0 1.768 2.198 2.629 4.904 1.922C146.148 36.728 147.182 27 145 27c-.55 0-1 .702-1 1.559s-.409 1.306-.91.997c-1.441-.891-4.09.51-4.09 2.162 0 1.043-.593.78-1.935-.857-1.688-2.06-2.201-2.199-4.023-1.088-1.746 1.064-2.183 1.024-2.672-.25-.756-1.972-2.988-1.96-3.748.02-.432 1.126-1.07 1.291-2.357.61-2.419-1.278-9.37-.593-10.397 1.026-.527.832-.843.898-.853.178-.023-1.752-2.926-2.475-5.151-1.284-1.391.744-2.373.749-3.256.017-.8-.664-2.367-.733-4.27-.187-1.711.491-3.687.481-4.586-.022-2.029-1.135-4.514-.179-5.079 1.954-.402 1.518-.451 1.52-.557.023-.168-2.372-4.944-3.324-7.062-1.407C80.189 33.044 76 32.479 76 29.5c0-1.556-.567-2.5-1.5-2.5-1.115 0-1.514 1.219-1.556 4.75l-.056 4.75-1.821-4.5c-2.491-6.154-4.447-6.267-6.455-.374m-20.945-1.959c-.367.366-.667 1.996-.667 3.622 0 2.514.224 2.77 1.5 1.711.825-.685 1.5-.836 1.5-.337 0 .5.9.908 2 .908 1.417 0 2-.666 2-2.285C50 31.921 49.396 31 48.5 31c-.825 0-1.5-.45-1.5-1 0-1.125-2.311-1.356-3.333-.333M85 33.5c0 .825.45 1.5 1 1.5s1-.675 1-1.5-.45-1.5-1-1.5-1 .675-1 1.5m45.079.083c.048 1.165.285 1.402.604.605.289-.722.253-1.585-.079-1.917-.332-.332-.568.258-.525 1.312m11.39-.533c-.95 1.538.351 2.53 1.635 1.246.718-.718.735-1.277.052-1.699-.56-.346-1.319-.142-1.687.453m-47.2 1.643c.973.254 2.323.237 3-.037.677-.274-.119-.481-1.769-.461-1.65.02-2.204.244-1.231.498m16 0c.973.254 2.323.237 3-.037.677-.274-.119-.481-1.769-.461-1.65.02-2.204.244-1.231.498m92.186 70.762c-2.284 2.283-2.455 3.161-2.455 12.6 0 14.14 1.761 15.994 17 17.901 10.326 1.292 10.555 1.378 13.828 5.179 3.95 4.587 4.933 4.792 5.356 1.115.282-2.457.734-2.762 4.243-2.86 6.412-.179 7.573-2.528 7.573-15.326 0-14.776.658-14.269-23.491-18.089-10.345-1.636-18.987-2.975-19.204-2.975-.218 0-1.5 1.105-2.85 2.455m1.569 2.982c-.563 1.481-1.024 6.457-1.024 11.057 0 11.475-.383 11.15 16.425 13.97 6.983 1.171 9.51 2.058 11.617 4.077l2.693 2.58.575-2.197c.487-1.863 1.051-2.102 3.714-1.569 6.092 1.218 6.976-.217 6.976-11.319 0-13.525 1.206-12.554-20-16.102-21.496-3.597-19.812-3.557-20.976-.497m334.222 40.034C518.23 151.687 518 151.911 518 168.237c0 13.05 1.627 16.763 7.346 16.763 1.766 0 2.61.689 3.065 2.5.827 3.297 1.933 3.153 4.9-.638 2.281-2.914 3.162-3.235 12.323-4.481 16.801-2.286 17.592-3.187 17.616-20.07.026-17.573-.377-17.796-25.004-13.84m.856 2.64c-13.529 1.871-18.004 3.507-18.221 6.662-.065.95-.032 6.227.074 11.727.212 10.985.971 12.5 6.268 12.5 1.601 0 3.091.654 3.415 1.499.478 1.245 1.031 1.116 3.256-.757 2.041-1.717 5.06-2.573 12.644-3.584C560.1 177.349 560 177.469 560 162.88c0-15.689 1.468-14.862-20.898-11.769m6.951 11.333c-2.118 2.254-2.471 2.328-4.567.955-2.088-1.368-2.499-1.292-5.093.939-2.558 2.2-3.027 2.293-5.015.99-2.974-1.949-4.093.058-1.172 2.104 2.941 2.06 3.721 1.985 6.493-.619 1.796-1.687 2.599-1.915 3.514-1 1.477 1.477 5.444 1.552 6.329.119.363-.588 1.257-.839 1.986-.56 2.141.822 3.978-2.057 2.472-3.872-1.677-2.021-2.268-1.908-4.947.944m-287.48 9.126c-4.115 4.115-2.278 10.677 3.334 11.91 5.624 1.235 10.104-3.689 8.116-8.919-1.669-4.391-8.314-6.127-11.45-2.991m2.677 1.533c-4.169 1.543-2.359 7.897 2.25 7.897 2.693 0 4.5-1.823 4.5-4.539 0-2.675-3.666-4.499-6.75-3.358M514.046 197.8c-5.893 5.893-2.703 14.2 5.454 14.2 5.824 0 8.946-3.586 8.172-9.388-1.006-7.544-8.313-10.125-13.626-4.812m.826 1.95c-1.243 1.586-1.208 1.621.378.378.962-.755 1.75-1.543 1.75-1.75 0-.823-.821-.294-2.128 1.372m3.336 1.926c-.987.396-1.019.847-.136 1.91 1.327 1.599 2.928.973 2.928-1.145 0-1.491-.583-1.651-2.792-.765m-358.285 5.247L157 209.846V239.2l3.4 3.4 3.4 3.4h28.6c31.599 0 31.352.059 25.1-6l-3.5-3.392v-10.336c0-18.861-1.433-20.123-24.223-21.326-26.434-1.396-26.484-1.393-29.854 1.977m2.087 2.297c-1.795 1.926-2.01 3.518-2.01 14.887 0 14.538.209 15.433 4.072 17.43 2.976 1.539 41.005 2.198 47.851.828l3.173-.634-2.268-2.414c-2.102-2.238-2.249-3.191-2.022-13.115.403-17.603.21-17.736-27.046-18.55-19.31-.577-19.784-.543-21.75 1.568m156.233 1.303c-42.923 9.004-72.437 29.012-92.163 62.478-2.431 4.125-5.831 9.749-7.556 12.499-25.877 41.256-9.577 101.987 36.149 134.689 4.03 2.883 7.327 5.971 7.327 6.864 0 2.06-9.572 24.796-18.978 45.076l-7.249 15.629 5.34 8.739c6.443 10.543 6.209 10.435 15.187 7.006 3.96-1.513 10.071-3.833 13.58-5.157 9.191-3.468 31.082-14.338 42.023-20.866 9.563-5.707 11.183-6.815 23.666-16.178 7.946-5.96 8.84-6.154 14.654-3.188 31.44 16.039 80.764 14.127 107.347-4.162 2.36-1.624 4.566-2.952 4.904-2.952.337 0 3.406-2.294 6.82-5.097 26.983-22.163 42.76-56.275 42.671-92.263-.055-22.523-4.709-39.7-14.757-54.473-2.12-3.117-5.601-8.817-7.735-12.667-20.942-37.778-61.753-66.141-109.473-76.081-13.561-2.824-48.072-2.766-61.757.104m-151.306 1.053c-1.084 1.307-1.063 1.732.127 2.485 2.695 1.705 4.438.412 3.332-2.471-.772-2.011-1.798-2.015-3.459-.014m341.728.502c-.979 1.143-1.615 2.572-1.414 3.174.201.603 1.382-.332 2.625-2.078 2.509-3.524 1.584-4.36-1.211-1.096m-336.219.009c-.369.598-.21 1.549.354 2.113 1.262 1.262 3.2.196 3.2-1.759 0-1.684-2.574-1.94-3.554-.354m332.137 4.779c-.431.697-.513 1.537-.183 1.867.895.895 1.871-.421 1.387-1.871-.338-1.016-.574-1.016-1.204.004m-338.04 2.065c-.936 1.513.597 1.902 8.695 2.203 7.774.29 9.495-.139 8.303-2.067-.814-1.317-16.193-1.44-16.998-.136m22.025-.041c-1.306 2.114.393 2.806 7.397 3.01 5.781.169 7.035-.071 7.035-1.347 0-1.083-.983-1.556-3.25-1.564-1.787-.006-4.88-.281-6.873-.61-2.204-.365-3.891-.165-4.309.511m312.503 1.525c-.746.898-1.059 1.93-.697 2.292.934.934 2.932-1.29 2.452-2.729-.276-.828-.818-.693-1.755.437M497 225.583c0 .871.534 1.406 1.188 1.188 1.854-.618 2.161-2.771.395-2.771-.871 0-1.583.713-1.583 1.583M491.5 232c-1.525 2.2-3.161 4-3.636 4-.475 0-.864.45-.864 1 0 1.698 1.933 1.107 3.76-1.15a83.196 83.196 0 0 1 3.49-4c.962-1.018 1.75-2.3 1.75-2.85 0-2.078-1.824-.862-4.5 3m-8.021 9.024c-1.432 1.582-1.568 2.287-.623 3.232.946.946 1.33.748 1.764-.909.304-1.165 1.527-2.59 2.717-3.165 2.155-1.043 2.155-1.047.068-1.114-1.152-.038-2.919.843-3.926 1.956m22.909-.044c-5.129 2.072-6.388 5.485-6.388 17.31v11.02l-3.935 3.743c-4.805 4.57-4.501 4.947 3.995 4.947 7.019 0 7.94.589 7.94 5.082 0 2.311 2.26 2.514 4.045.363 2.532-3.05 5.592-3.809 15.629-3.877 16.18-.108 18.535-2.784 18.105-20.568-.3-12.367-1.469-15.557-6.576-17.932-2.721-1.265-29.721-1.338-32.815-.088m1.112 3.175c-4.016 2.196-4.5 3.867-4.5 15.536 0 9.793-.256 11.565-1.908 13.217-2.215 2.215-.678 3.052 5.658 3.078 2.579.011 3.25.427 3.25 2.014 0 1.1.267 2 .592 2 .326 0 1.737-.9 3.135-2 2.169-1.706 4.057-2 12.852-2 14.717 0 15.459-.722 16.17-15.732l.528-11.144-3.061-3.062-3.062-3.062-13.827.03c-8.064.018-14.661.487-15.827 1.125m-30.5 5.904c0 .582.45.781 1 .441s1-.816 1-1.059-.45-.441-1-.441-1 .477-1 1.059m34.593 3.111c-2.802 4.001-1.721 13.83 1.522 13.83.393 0 .887-2.812 1.098-6.25.211-3.437.587-6.869.835-7.625.779-2.371-1.786-2.338-3.455.045m5.862.285c-4.327 4.326-1.596 11.025 4.819 11.823l3.226.402-3.25.16c-2.202.108-3.25.66-3.25 1.712 0 1.242 1.034 1.492 5.171 1.25 5.374-.314 7.822-2.468 3.955-3.479-1.908-.499-1.959-.723-.605-2.657 5.118-7.306-3.806-15.472-10.066-9.211m12.545-.514c0 1.068.461 2.226 1.024 2.574 1.07.661.844 3.689-.507 6.813-.516 1.192-.256 2.362.748 3.365 3.826 3.826 5.95-6.686 2.611-12.925-1.268-2.37-3.876-2.254-3.876.173m-55.333-.274c-.367.366-.667 1.131-.667 1.7 0 .626.466.567 1.183-.15.651-.651.951-1.416.667-1.7-.284-.285-.817-.217-1.183.15m45.373 2.785c-1.901 2.29-.837 5.011 2.091 5.352 2.996.349 3.987-1.28 2.77-4.554-.956-2.572-3.097-2.923-4.861-.798M589 289c-4.161 4.161-.803 12 5.14 12 5.582 0 9.109-8.655 5.031-12.345-2.516-2.277-7.726-2.1-10.171.345m2.05 1.44c-2.224 2.679-.895 7.02 2.26 7.382 5.168.593 7.55-3.829 3.861-7.167-2.251-2.037-4.542-2.118-6.121-.215m-184.3 33.222c.688.278 1.813.278 2.5 0 .688-.277.125-.504-1.25-.504s-1.937.227-1.25.504m21.063.021c.721.289 1.584.253 1.916-.079.332-.332-.258-.568-1.312-.525-1.165.048-1.402.285-.604.604m-28 1c.721.289 1.584.253 1.916-.079.332-.332-.258-.568-1.312-.525-1.165.048-1.402.285-.604.604m34 0c.721.289 1.584.253 1.916-.079.332-.332-.258-.568-1.312-.525-1.165.048-1.402.285-.604.604m5 1c.721.289 1.584.253 1.916-.079.332-.332-.258-.568-1.312-.525-1.165.048-1.402.285-.604.604m-318.546 8.283c-6.894 6.422-2.907 16.093 6.753 16.381 9.151.272 13.832-9.873 7.334-15.895-3.443-3.19-10.908-3.448-14.087-.486m250.24.023c-.35.566.051.734.941.393 1.732-.665 2.049-1.382.611-1.382-.518 0-1.216.445-1.552.989M122 336c-1.1 1.1-2 2.43-2 2.955 0 .525 1.105-.15 2.455-1.5 4.78-4.781 11.369-2.484 10.054 3.504-.422 1.922-.271 3.041.412 3.041 1.821 0 1.233-6.551-.75-8.345-2.516-2.277-7.726-2.1-10.171.345m3.5 5c-.837 1.354.292 3 2.059 3 .793 0 1.441-.9 1.441-2 0-2.07-2.413-2.76-3.5-1m-5.437 1.027c-.13 3.132 2.915 5.979 6.244 5.837 2.74-.117 2.838-.202.693-.596-3.06-.563-4.961-2.05-6.048-4.733-.548-1.35-.847-1.521-.889-.508m231.861 5.723-2.424 2.75 2.75-2.424c1.512-1.334 2.75-2.571 2.75-2.75 0-.785-.81-.146-3.076 2.424m-214.98 88.094c-4.503 3.646-1.68 12.156 4.032 12.156 3.383 0 7.024-3.896 7.024-7.516 0-5.781-6.353-8.448-11.056-4.64m1.711 1.985c-1.954 2.159-2.118 4.308-.455 5.971 3.762 3.762 9.875-1.849 6.309-5.79-2.254-2.491-3.723-2.536-5.854-.181m425.797 42.817c-6.418 6.926 2.3 17.768 10.681 13.283 1.524-.816 2.573-.697 4.399.5 2.715 1.779 3.468 1.938 3.468.732 0-.462-1.142-1.36-2.538-1.996-2.19-.998-2.383-1.443-1.414-3.254 4.334-8.099-8.264-16.097-14.596-9.265m1.881 2.969c-2.541 3.877-.168 7.885 4.667 7.885 2.657 0 3.754-.59 4.902-2.635 2.062-3.673-.551-7.865-4.902-7.865-2.082 0-3.46.772-4.667 2.615m54.022 12.832c-12.128 5.277-17.51 19.236-11.988 31.094 11.493 24.68 49.085 12.472 43.418-14.1-2.814-13.196-19.467-22.2-31.43-16.994m-35.355.469c0 1.334 4.985 4.267 6.311 3.714.664-.277.196-.797-1.061-1.179-1.237-.376-2.25-1.034-2.25-1.461 0-.427-.675-1.035-1.5-1.352-.825-.316-1.5-.191-1.5.278m36.481 3.478c-9.434 4.11-13.891 16.464-9.231 25.586 10.487 20.527 39.586 10.28 35.324-12.439-1.932-10.298-16.169-17.471-26.093-13.147M593 501.819c0 1.208 1.897 2.617 2.591 1.924.251-.252-.229-1.027-1.067-1.723-.95-.789-1.524-.865-1.524-.201m4 1.893c0 .926 7.231 6.288 8.479 6.288 1.516 0 .167-1.839-2.229-3.038-1.513-.757-3.538-2.027-4.5-2.824-.962-.796-1.75-.988-1.75-.426m-381 18.372a2544.487 2544.487 0 0 1-25.469 6.1c-24.083 5.624-24.452 6.352-21.952 43.316 1.191 17.61 5.985 21.295 21.566 16.575 3.495-1.059 14.455-4.021 24.355-6.582 26.788-6.929 27.121-7.384 25.428-34.775-1.232-19.936-1.798-22.046-6.826-25.431-4.004-2.695-2.697-2.756-17.102.797m-3.5 4.869a1631.805 1631.805 0 0 1-22.98 5.562c-14.604 3.403-18.653 6.535-17.663 13.662.052.372.353 8.178.67 17.346.844 24.447.957 24.541 22.777 19.048 42.517-10.704 42.302-10.577 41.328-24.468a2507.52 2507.52 0 0 1-1.264-19.499c-.981-16.18-2.273-16.839-22.868-11.651m.586 22.577-3.253 4.53-3.537-2.186-3.537-2.186-3.955 4.156c-4.441 4.668-4.886 4.804-8.331 2.546-2.379-1.558-5.473-1.335-5.473.394 0 1.045 7.276 5.216 9.098 5.216.73 0 3.243-1.881 5.586-4.181 4.04-3.964 4.355-4.093 6.117-2.5 2.886 2.612 5.434 1.933 8.699-2.319 3.166-4.124 6.622-5.769 4.296-2.045-1.869 2.993-.096 3.676 2.708 1.041 3.162-2.97 3.15-4.377-.051-5.835-3.999-1.822-4.899-1.46-8.367 3.369M478 552.073c-1.925.477-10.025 2.013-18 3.413s-15.306 3.004-16.291 3.564c-.985.56-2.292.708-2.904.329-.696-.43-.832-.231-.362.53.424.685-.023 2.074-1.024 3.18-1.704 1.884-1.68 2.472.61 14.567 3.7 19.536 4.59 20.038 27.471 15.49 8.25-1.64 16.642-3.255 18.649-3.59 9.311-1.553 11.181-5.837 8.765-20.077-2.174-12.814-3.071-14.851-7.46-16.934-3.587-1.702-4.343-1.74-9.454-.472m-4.5 4.47c-3.3.737-10.275 2.058-15.5 2.937-16.233 2.731-17.791 4.148-15.577 14.172a1441.47 1441.47 0 0 1 2.474 11.456c1.684 7.985 3.031 8.408 17.29 5.426 6.222-1.302 14.833-2.921 19.136-3.599 4.303-.678 8.785-2.012 9.96-2.963l2.137-1.731-1.839-11.37c-2.737-16.925-3.551-17.569-18.081-14.328m-15.027 7.501c-.918 1.485 1.398 3.943 3.1 3.29 2.192-.842 1.778-4.334-.514-4.334-1.068 0-2.231.47-2.586 1.044m-5.883.81c-.993 1.607.553 4.265 2.286 3.931 2.13-.41 2.104-4.165-.033-4.577-.911-.175-1.925.116-2.253.646M447 567c0 1.333.667 2 2 2s2-.667 2-2-.667-2-2-2-2 .667-2 2" fill-rule="evenodd"/></svg>