<svg xmlns="http://www.w3.org/2000/svg" version="1.0" preserveAspectRatio="xMidYMid meet" viewBox="45.45 41.14 224.16 205.69">

<g transform="translate(0.000000,297.000000) scale(0.100000,-0.100000)" fill="#000000" stroke="none">
<path d="M1345 2150 c-118 -27 -146 -35 -192 -56 -110 -48 -218 -151 -273 -260 -20 -41 -40 -110 -54 -188 -3 -14 -8 -35 -11 -46 -8 -24 -2 -25 19 -4 9 8 16 32 16 53 0 49 19 103 33 94 6 -4 8 0 4 11 -8 20 59 134 112 190 124 132 349 199 546 163 109 -20 182 -50 270 -108 90 -60 141 -117 206 -228 71 -120 82 -161 77 -279 -3 -90 -7 -105 -45 -185 -66 -137 -159 -215 -300 -252 -98 -26 -231 -13 -315 31 -26 14 -30 12 -80 -26 -54 -42 -271 -154 -319 -165 -22 -6 -29 -1 -48 31 l-22 37 50 114 c28 62 51 117 51 122 0 5 7 14 15 21 27 23 18 63 -21 89 -55 38 -114 110 -147 180 -24 51 -32 83 -37 155 l-6 91 -8 -59 c-5 -32 -6 -82 -3 -112 6 -54 53 -174 68 -174 5 0 9 -6 9 -14 0 -13 111 -128 130 -134 6 -2 10 -8 10 -13 0 -15 -31 5 -88 56 -59 53 -115 146 -133 220 -19 80 -20 83 -29 60 -8 -24 35 -152 72 -211 14 -21 48 -59 75 -84 27 -25 52 -52 55 -60 4 -14 -21 -82 -61 -160 -28 -56 -33 -87 -15 -94 9 -4 13 -13 10 -24 -4 -12 3 -27 19 -42 27 -26 74 -25 136 3 105 48 131 60 198 97 40 22 85 50 100 61 20 16 27 18 29 7 3 -15 71 -33 165 -44 76 -8 210 13 203 32 -3 8 -1 14 3 14 5 0 11 -5 13 -12 6 -18 110 55 164 115 46 51 100 144 90 154 -3 3 4 20 16 36 42 59 28 267 -26 390 -14 31 -22 57 -17 57 5 0 11 -5 13 -11 3 -9 13 -9 38 -1 19 6 49 15 65 19 29 7 28 8 -13 11 -25 2 -50 -2 -59 -9 -10 -9 -16 -10 -21 -2 -4 6 -20 15 -35 18 -26 7 -27 9 -12 24 9 11 15 36 15 64 0 58 23 77 95 77 74 0 92 -17 97 -90 1 -33 -1 -60 -5 -60 -5 0 -5 -5 -1 -12 5 -8 2 -9 -9 -5 -17 6 -23 -4 -10 -16 12 -13 43 25 37 47 -3 12 2 30 10 41 12 17 12 23 -1 50 -22 42 -38 49 -123 55 -56 4 -74 8 -72 19 3 16 -54 -28 -63 -48 -4 -11 -3 -12 10 -1 13 11 15 6 15 -43 0 -46 -3 -55 -17 -53 -9 2 -24 12 -34 24 -9 12 -23 22 -29 22 -7 0 -10 7 -6 15 3 8 1 15 -3 15 -5 0 -33 20 -62 45 -29 25 -57 45 -61 45 -5 0 -21 9 -36 20 -67 49 -331 112 -374 89 -13 -7 -23 -7 -27 -2 -3 5 -19 7 -36 3z"/>
<path d="M1300 2080 c-159 -28 -300 -131 -367 -268 -25 -51 -28 -68 -28 -157 0 -88 3 -107 27 -157 29 -63 101 -146 156 -180 32 -20 34 -24 30 -62 -3 -23 -28 -92 -55 -153 -28 -62 -47 -113 -42 -113 35 0 240 107 334 174 49 35 49 35 70 16 32 -30 125 -68 185 -75 63 -8 167 13 230 45 21 11 41 16 44 11 3 -5 -22 -21 -57 -37 -51 -23 -79 -29 -154 -32 -105 -4 -167 11 -231 58 -44 32 -51 31 -45 -4 5 -23 66 -61 83 -51 4 3 10 0 12 -5 10 -30 190 -40 269 -16 140 43 243 142 301 293 19 47 23 78 23 163 0 58 -5 113 -10 122 -7 12 -10 -15 -10 -90 -1 -139 -22 -197 -107 -288 -79 -84 -156 -122 -265 -131 -126 -9 -219 26 -287 110 -42 53 -49 144 -15 212 87 174 361 232 534 113 51 -36 110 -109 103 -129 -2 -7 -14 4 -25 23 -31 53 -116 115 -181 134 -72 21 -198 14 -264 -14 -187 -82 -229 -285 -78 -382 174 -112 435 -25 532 179 26 55 31 77 31 136 -1 110 -4 145 -13 140 -5 -3 -11 3 -15 14 -3 11 -12 24 -20 31 -12 10 -13 6 -8 -27 3 -21 11 -44 16 -52 23 -27 17 -90 -6 -71 -51 43 -66 54 -97 70 -105 53 -266 53 -373 0 -106 -52 -169 -127 -188 -224 -10 -47 -9 -59 14 -115 14 -35 24 -68 21 -75 -6 -14 -60 -49 -150 -98 -58 -31 -73 -35 -77 -23 -4 8 -2 17 3 20 4 3 7 13 6 23 -2 9 3 32 11 50 8 19 10 31 5 28 -5 -3 -17 -26 -27 -51 -30 -81 -85 -168 -85 -137 0 6 18 55 40 110 40 98 45 140 26 185 -5 9 -14 17 -21 17 -7 0 -15 9 -18 20 -3 12 -14 20 -27 20 -33 0 -85 61 -110 127 -31 82 -26 205 12 286 49 105 169 208 288 246 106 33 279 31 388 -5 153 -51 297 -167 361 -289 17 -33 29 -49 25 -35 -27 107 -157 247 -287 310 -46 22 -115 47 -153 55 -73 16 -209 18 -284 5z m513 -496 c51 -17 76 -39 33 -28 -20 5 -32 0 -56 -24 -16 -17 -30 -39 -30 -50 0 -33 48 -82 80 -82 19 0 36 10 54 31 30 35 31 46 11 73 -24 32 3 37 33 7 31 -30 52 -66 52 -90 0 -17 -51 -104 -73 -125 -110 -103 -292 -136 -398 -73 -24 15 -56 31 -71 37 -49 21 -64 120 -28 190 27 53 99 111 163 132 67 21 170 22 230 2z m58 -73 c20 -16 22 -23 14 -47 -9 -24 -16 -29 -44 -29 -23 0 -38 7 -47 21 -13 18 -12 24 7 47 24 32 39 34 70 8z"/>
<path d="M1571 1550 c-13 -11 -19 -20 -15 -20 5 0 4 -4 -3 -8 -6 -4 -14 -19 -18 -33 -5 -21 0 -32 25 -58 38 -38 72 -40 105 -6 33 32 32 72 -4 113 -33 37 -56 40 -90 12z m79 -40 c11 -11 20 -25 20 -32 0 -19 -32 -48 -53 -48 -24 0 -57 27 -57 47 0 18 36 53 55 53 8 0 24 -9 35 -20z"/>
<path d="M1591 1492 c-12 -22 3 -42 30 -42 22 0 33 28 18 46 -16 19 -36 17 -48 -4z"/>
<path d="M1445 1458 c-14 -45 -20 -108 -13 -135 12 -45 28 -51 18 -6 -5 20 -6 41 -3 47 7 11 13 106 7 106 -3 0 -6 -6 -9 -12z"/>
<path d="M1822 1501 c-21 -13 -10 -46 16 -49 27 -4 40 22 22 43 -14 17 -20 18 -38 6z"/>
<path d="M1283 2005 c-183 -50 -299 -182 -310 -355 -4 -52 -2 -79 6 -84 7 -5 11 5 10 31 -1 40 20 124 45 185 17 40 128 157 154 163 10 2 35 12 57 22 22 11 56 26 75 35 43 20 31 21 -37 3z"/>
<path d="M2069 1949 c-6 -12 -9 -36 -6 -54 3 -18 0 -38 -6 -44 -8 -8 -5 -11 11 -11 12 0 22 -5 22 -11 0 -6 5 -7 13 -2 6 4 35 10 62 13 48 5 50 6 59 42 6 26 6 46 -2 63 -11 23 -17 25 -76 25 -56 0 -67 -3 -77 -21z m129 -37 c2 -14 -4 -29 -15 -37 -32 -25 -50 -18 -61 23 l-10 37 -1 -33 c-1 -37 -21 -35 -21 2 0 31 5 34 58 32 41 -1 47 -4 50 -24z"/>
<path d="M1335 1124 c-67 -49 -259 -143 -307 -150 -40 -7 -43 -10 -29 -33 7 -11 11 -10 20 5 11 17 12 16 8 -8 -2 -16 0 -28 6 -28 19 0 251 118 274 139 12 12 26 21 30 21 23 1 54 41 51 65 l-3 25 -50 -36z"/>
</g>
</svg>